<svg width="24" height="16" viewBox="0 0 24 16" fill="none" xmlns="http://www.w3.org/2000/svg">
<path fill-rule="evenodd" clip-rule="evenodd" d="M13.8401 0.00138418C13.8355 0.00329385 13.7787 0.0169221 13.7139 0.0316695C13.6492 0.0464169 13.5801 0.0637052 13.5605 0.070082C13.5409 0.0764588 13.5137 0.0836513 13.5 0.0860657C13.4863 0.0884802 13.4651 0.0942263 13.453 0.098828C13.4409 0.10343 13.4227 0.107224 13.4126 0.107258C13.3877 0.107342 13.2496 0.159963 13.1663 0.201185C13.1052 0.231394 13.0771 0.249835 13.0367 0.286312C13.0298 0.29258 13.009 0.30657 12.9904 0.317405C12.9719 0.328241 12.9471 0.3469 12.9353 0.358863C12.8608 0.434072 12.8584 0.435132 12.7562 0.437084C12.7046 0.438068 12.6434 0.439524 12.6203 0.440323C12.5972 0.441114 12.4514 0.446119 12.2964 0.451444C12.0035 0.461506 11.9175 0.468522 11.8359 0.489024C11.7777 0.503628 11.7386 0.508482 11.5897 0.519603C11.5273 0.524272 11.4326 0.53351 11.3794 0.540139C11.3262 0.54676 11.2278 0.556401 11.1607 0.561566C11.0936 0.566731 11.0065 0.57829 10.9672 0.58725C10.9279 0.596209 10.8711 0.609274 10.841 0.616273C10.8109 0.623273 10.7579 0.634461 10.7232 0.641141C10.6885 0.647829 10.6526 0.655039 10.6433 0.657176C10.6341 0.659304 10.583 0.669424 10.5297 0.679662C10.2152 0.740166 10.1406 0.756554 9.8857 0.82129C9.81141 0.840151 9.72055 0.861578 9.6838 0.868905C9.61165 0.883283 9.60656 0.884502 9.58753 0.892015C9.58059 0.894749 9.5522 0.901715 9.52444 0.907486C9.49667 0.913248 9.47207 0.918514 9.46975 0.919179C9.43397 0.929468 9.42051 0.932993 9.41037 0.934709C9.40371 0.935836 9.38689 0.942709 9.37301 0.94997C9.34772 0.963211 9.27256 0.987128 9.21737 0.999503C9.15952 1.01248 9.06894 1.03938 8.99444 1.0657C8.9528 1.08042 8.91345 1.09422 8.90701 1.09637C8.90056 1.09853 8.89744 1.10244 8.90007 1.10507C8.90271 1.10771 8.93637 1.09829 8.97489 1.08416C9.0134 1.07002 9.09413 1.04477 9.15428 1.02805C9.21443 1.01132 9.30718 0.982938 9.36039 0.964969C9.4136 0.947 9.58585 0.90158 9.74316 0.864034C9.90048 0.826488 10.0898 0.781262 10.1638 0.76352C10.2378 0.745786 10.3533 0.721448 10.4204 0.709435C10.5668 0.683229 10.7023 0.655703 10.8999 0.612025C10.9933 0.591389 11.0902 0.576086 11.1649 0.57018C11.2297 0.565065 11.33 0.555282 11.3878 0.548442C11.4457 0.541611 11.5611 0.53022 11.6444 0.523137C11.7277 0.516062 11.8242 0.503216 11.8589 0.494593C11.9526 0.471332 11.9685 0.470431 12.7044 0.446691L12.8642 0.441542L12.9056 0.404274C12.9594 0.355961 13.0999 0.255455 13.1781 0.209379C13.2699 0.155302 13.3488 0.130804 13.7236 0.0399394L13.8595 0.00700408L14.0686 0.00986409C14.2758 0.0127076 14.2787 0.0129937 14.4025 0.0432708C14.4712 0.0600709 14.535 0.0778889 14.5443 0.0828776C14.5536 0.0878663 14.5847 0.0984493 14.6133 0.106391C14.7291 0.138485 14.9488 0.282821 15.01 0.366939L15.0466 0.417162L15.1164 0.42041C15.1547 0.422194 15.2736 0.424498 15.3806 0.425525C15.4875 0.426551 15.584 0.429302 15.5951 0.431649C15.6061 0.433988 15.6833 0.439583 15.7666 0.444067C16.0224 0.457855 16.3455 0.484094 16.3765 0.493608C16.3927 0.49858 16.4628 0.51045 16.5322 0.51999C16.6016 0.529522 16.7 0.544404 16.7509 0.553044C16.8258 0.565772 16.8795 0.56838 17.0327 0.566731C17.2482 0.564418 17.3856 0.571989 17.4659 0.59059C17.4963 0.597656 17.5732 0.611276 17.6366 0.620858C17.8913 0.659321 18.248 0.743978 18.4012 0.802328C18.5224 0.848496 18.5962 0.875164 18.6774 0.902144C18.7701 0.932934 18.9176 0.985605 19.0728 1.04327C19.1283 1.0639 19.2097 1.10068 19.2537 1.12499C19.2976 1.14931 19.3582 1.1827 19.3883 1.19919C19.4745 1.24648 19.6298 1.33852 19.708 1.38865C19.7473 1.41389 19.8154 1.45521 19.8594 1.48048C19.9917 1.55656 20.1545 1.66049 20.301 1.76254C20.477 1.88503 20.6006 1.97324 20.6418 2.00557C20.6672 2.02559 20.7353 2.07708 20.7932 2.12001C20.851 2.16295 20.9358 2.22828 20.9816 2.26521C21.0273 2.30213 21.0898 2.35147 21.1204 2.37484C21.375 2.5695 21.485 2.66587 21.6816 2.86635C21.9183 3.1078 22.0113 3.21546 22.1294 3.38487C22.2734 3.59134 22.3408 3.70101 22.4085 3.83908C22.5382 4.10358 22.5741 4.19854 22.6242 4.41027C22.6561 4.54456 22.6633 4.5911 22.6693 4.70143C22.6767 4.83495 22.6874 4.89215 22.7241 4.994C22.7555 5.08104 22.8149 5.33981 22.8702 5.6301C22.8936 5.7532 22.8961 5.78342 22.8993 5.98344C22.9016 6.12244 22.9067 6.21443 22.9133 6.23581C22.9189 6.25432 22.9342 6.31868 22.9472 6.37883C22.9741 6.50338 23.0092 6.62673 23.0281 6.66331C23.0421 6.69038 23.0704 6.80139 23.0971 6.93406C23.1064 6.98033 23.133 7.0958 23.1562 7.19065C23.1988 7.36479 23.2019 7.37967 23.2113 7.45565C23.2196 7.52238 23.2643 7.7505 23.3092 7.95539C23.332 8.05906 23.3547 8.1783 23.3597 8.22039C23.3647 8.26248 23.3758 8.32909 23.3845 8.36842C23.3931 8.40775 23.4044 8.48157 23.4095 8.53247C23.4147 8.58336 23.4245 8.67233 23.4312 8.73017C23.4533 8.9192 23.4589 8.98486 23.4644 9.12135C23.4698 9.25692 23.4732 9.29213 23.4964 9.45365C23.5034 9.50224 23.5115 9.56659 23.5143 9.59667C23.5172 9.62674 23.5286 9.70435 23.5397 9.76913C23.5802 10.0062 23.5889 10.3565 23.5577 10.501C23.5192 10.6801 23.4403 10.9822 23.4231 11.0165C23.3341 11.1944 23.2082 11.3811 23.1037 11.49C23.0731 11.5219 23.0187 11.5696 22.9827 11.596C22.9468 11.6223 22.8682 11.6805 22.808 11.7252C22.6466 11.8451 22.5899 11.8818 22.4042 11.9865C22.1261 12.1431 21.8346 12.2803 21.6723 12.3308C21.6538 12.3365 21.6273 12.348 21.6134 12.3563C21.5995 12.3645 21.5711 12.3756 21.5503 12.3808C21.5295 12.3859 21.4954 12.3971 21.4746 12.4056C21.4171 12.429 21.0824 12.5383 21.0203 12.5539C20.9639 12.5681 20.8867 12.5959 20.8156 12.6275C20.7848 12.6412 20.729 12.6913 20.5859 12.8341C20.482 12.9377 20.3916 13.0306 20.3851 13.0406C20.3786 13.0506 20.3407 13.0814 20.301 13.1091C20.2612 13.1368 20.209 13.1747 20.185 13.1935C20.1142 13.2485 19.6845 13.559 19.6791 13.559C19.6764 13.559 19.6467 13.5791 19.6132 13.6036C19.5495 13.6502 19.5158 13.6717 19.3 13.803C19.2277 13.847 19.1376 13.9035 19.0997 13.9286C19.0618 13.9538 18.9721 14.0085 18.9003 14.0501C18.8286 14.0918 18.7397 14.1439 18.7026 14.1659C18.6656 14.188 18.5823 14.2331 18.5176 14.2663C18.4528 14.2995 18.396 14.3294 18.3914 14.3328C18.3867 14.3362 18.3148 14.3742 18.2315 14.4172C18.1482 14.4602 18.0699 14.5025 18.0575 14.5111C18.0451 14.5198 18.0205 14.532 18.0028 14.5383C17.9852 14.5446 17.9253 14.572 17.8698 14.5992C17.8143 14.6264 17.748 14.6578 17.7226 14.6689C17.6292 14.71 17.5153 14.7633 17.4702 14.787C17.3971 14.8254 17.2225 14.8996 17.1169 14.9371C17.0636 14.956 16.9898 14.9835 16.9528 14.9981C16.7952 15.0605 16.6805 15.1005 16.5322 15.1448C16.4767 15.1614 16.3896 15.1882 16.3387 15.2044C16.1172 15.2747 15.2818 15.496 15.1334 15.5237C15.0696 15.5355 14.9928 15.5517 14.7361 15.6073C14.706 15.6138 14.6284 15.6291 14.5636 15.6412C14.4988 15.6533 14.408 15.6706 14.3617 15.6795C14.2534 15.7003 14.1468 15.7182 14.0883 15.7253C14.0629 15.7284 14.0174 15.7364 13.9873 15.7432C13.8579 15.7724 13.4983 15.8159 13.2681 15.8303C13.194 15.8349 13.1202 15.8423 13.104 15.8468C13.0878 15.8512 13.0045 15.859 12.9189 15.864C12.8333 15.8689 12.7254 15.8766 12.6792 15.881C12.47 15.901 12.2626 15.9163 12.1138 15.9229C11.9489 15.9302 10.6878 15.927 10.5886 15.9191C10.5586 15.9167 10.4753 15.9126 10.4036 15.91C10.3318 15.9074 10.2129 15.8997 10.1392 15.893C10.0656 15.8862 9.92929 15.8788 9.83639 15.8764C9.66139 15.8721 9.47798 15.8603 9.36894 15.8465C9.3343 15.8421 9.19991 15.8328 9.07029 15.826C8.94066 15.8191 8.7816 15.8058 8.71682 15.7964C8.65204 15.787 8.52988 15.7759 8.44534 15.7716C8.3608 15.7673 8.25669 15.7583 8.21399 15.7515C8.10162 15.7336 8.01835 15.7227 7.95127 15.7171C7.84795 15.7084 7.73372 15.6951 7.69468 15.6872C7.67386 15.683 7.60004 15.6755 7.53064 15.6706C7.46123 15.6656 7.37605 15.6562 7.34135 15.6496C7.30665 15.643 7.20065 15.6296 7.1058 15.6199C7.01095 15.6102 6.89359 15.5952 6.84501 15.5865C6.74267 15.5682 6.61017 15.5498 6.42017 15.5274C6.26125 15.5087 6.14949 15.4916 6.06263 15.4728C6.02793 15.4652 5.96736 15.4578 5.92803 15.4563C5.88779 15.4548 5.8087 15.4425 5.74716 15.4282C5.60756 15.3957 5.47478 15.3703 5.4115 15.3639C5.38421 15.3612 5.33878 15.3536 5.31055 15.3472C5.2297 15.3287 5.17078 15.3182 5.11621 15.3127C5.08844 15.3099 5.02977 15.3001 4.98581 15.2909C4.89854 15.2727 4.75694 15.2466 4.56097 15.2126C4.49157 15.2005 4.40071 15.183 4.35907 15.1738C4.08598 15.113 4.01623 15.0985 3.99685 15.0985C3.98485 15.0985 3.89108 15.078 3.78848 15.0528C3.68588 15.0276 3.58679 15.0046 3.56828 15.0016C3.54977 14.9985 3.44377 14.974 3.33272 14.947C3.22168 14.9201 3.05889 14.8807 2.97098 14.8597C2.88307 14.8386 2.71271 14.7933 2.59241 14.759C2.47211 14.7247 2.32257 14.6824 2.26011 14.6651C2.19765 14.6477 2.13518 14.6286 2.1213 14.6225C2.10742 14.6164 2.04117 14.5956 1.97408 14.5763C1.90699 14.5569 1.7972 14.5194 1.73011 14.493C1.66302 14.4665 1.59299 14.4401 1.57448 14.4342C1.34257 14.3602 0.928674 14.1634 0.748046 14.0412C0.496819 13.8713 0.385587 13.7688 0.260314 13.5915C0.175935 13.4721 0.169424 13.4592 0.147997 13.3681C0.0243982 12.843 0.0164062 12.7407 0.0794506 12.4904C0.114708 12.3503 0.157747 12.2468 0.217023 12.1595C0.35589 11.955 0.464632 11.844 0.694861 11.6717C0.869449 11.5411 1.06411 11.4069 1.1233 11.3764C1.13889 11.3684 1.16988 11.3488 1.19218 11.3327C1.21446 11.3167 1.28121 11.2788 1.34049 11.2484C1.39978 11.218 1.45397 11.1882 1.46091 11.1821C1.46785 11.1761 1.48364 11.1686 1.496 11.1655C1.50836 11.1625 1.53852 11.147 1.56302 11.1312C1.58752 11.1154 1.61138 11.1025 1.61603 11.1025C1.62069 11.1025 1.6511 11.0895 1.68362 11.0737C1.83069 11.0019 2.061 10.8993 2.18019 10.8525C2.22183 10.8362 2.27862 10.8104 2.30638 10.7952C2.33414 10.7801 2.38336 10.7582 2.41575 10.7466C2.44813 10.735 2.52385 10.7048 2.584 10.6794C2.64415 10.654 2.74068 10.6138 2.79852 10.5901C2.85636 10.5664 2.91882 10.5388 2.93733 10.5288C2.99774 10.4961 3.01194 10.4901 3.10138 10.4589C3.17627 10.4329 3.24933 10.4032 3.39161 10.3411C3.40549 10.3351 3.44903 10.3181 3.48836 10.3035C3.52769 10.2889 3.61097 10.2549 3.67344 10.2279C3.7359 10.201 3.79772 10.1765 3.81083 10.1735C3.82393 10.1705 3.8728 10.1509 3.91942 10.13C3.96604 10.109 4.06132 10.0707 4.13115 10.0449C4.20098 10.0191 4.28272 9.98887 4.3128 9.97774C4.34287 9.96661 4.38262 9.95048 4.40113 9.94189C4.47501 9.9076 4.55388 9.87528 4.5778 9.86947C4.59168 9.86611 4.64258 9.84655 4.69091 9.82602C4.77345 9.79096 4.80609 9.77799 4.93113 9.73057C4.95889 9.72005 4.9825 9.7109 4.98358 9.71027C4.98467 9.70963 4.99725 9.66971 5.01155 9.62157C5.02585 9.57342 5.05147 9.50933 5.06847 9.47912L5.09938 9.42421L5.09662 9.26437C5.09464 9.14944 5.09789 9.07262 5.10819 8.99096C5.11881 8.90666 5.12316 8.79607 5.12503 8.56191C5.12642 8.3884 5.13164 8.20101 5.13663 8.14549C5.14163 8.08996 5.14951 7.94931 5.15416 7.83293C5.1588 7.71655 5.16652 7.60109 5.17131 7.57635C5.1761 7.5516 5.18214 7.48593 5.18475 7.43041C5.18736 7.37489 5.19645 7.30107 5.20493 7.26636C5.21343 7.23166 5.2263 7.1692 5.23354 7.12756C5.25186 7.02215 5.34578 6.64188 5.35863 6.62109C5.36797 6.60597 5.42195 6.35912 5.42724 6.30732C5.43591 6.22243 5.46442 6.0239 5.47799 5.95399C5.49387 5.87219 5.50465 5.75552 5.52079 5.4913C5.53698 5.2261 5.53335 5.0854 5.50765 4.98233C5.49075 4.91456 5.48917 4.89161 5.49262 4.7636C5.49573 4.64837 5.501 4.60015 5.51976 4.51543C5.55821 4.34187 5.60549 4.15267 5.62385 4.099C5.63334 4.07124 5.64903 4.02013 5.65871 3.98543C5.75137 3.65336 5.83377 3.46609 5.99004 3.2325C6.10346 3.06293 6.11854 3.04112 6.16499 2.97934C6.18966 2.94653 6.23576 2.88501 6.26744 2.84264C6.2991 2.80026 6.32775 2.7656 6.3311 2.7656C6.33446 2.7656 6.36912 2.73674 6.40813 2.70147C6.44714 2.6662 6.5472 2.58672 6.63048 2.52484C6.71377 2.46297 6.8103 2.38847 6.84501 2.35931C6.90182 2.31155 7.18521 2.10387 7.32427 2.00809C7.3542 1.98747 7.42612 1.93524 7.48409 1.89204C7.54205 1.84883 7.60653 1.80253 7.62737 1.78917C7.73441 1.7205 7.8399 1.65132 7.94849 1.57858C8.06892 1.4979 8.24061 1.39433 8.25391 1.39433C8.25778 1.39433 8.2728 1.3853 8.28729 1.37424C8.30177 1.3632 8.33052 1.34833 8.35117 1.34122C8.37183 1.33409 8.45224 1.29771 8.52987 1.26035C8.6075 1.22299 8.67435 1.19243 8.67845 1.19243C8.68254 1.19243 8.71649 1.17933 8.7539 1.16332C8.79131 1.1473 8.83745 1.13003 8.85645 1.12491C8.87544 1.1198 8.88892 1.11354 8.88639 1.11103C8.88069 1.10532 8.79692 1.13023 8.74626 1.15269C8.69517 1.17534 8.68048 1.18107 8.64111 1.19367C8.6226 1.19959 8.59799 1.21041 8.58643 1.21771C8.57486 1.22501 8.54457 1.23996 8.51912 1.25092C8.43891 1.28549 8.28057 1.36238 8.24992 1.38166C8.23372 1.39184 8.20628 1.40482 8.18893 1.41052C8.17158 1.41622 8.15738 1.4243 8.15738 1.42848C8.15738 1.43265 8.14787 1.43847 8.13624 1.44139C8.12461 1.4443 8.11231 1.45145 8.1089 1.45728C8.10549 1.4631 8.08566 1.47646 8.06484 1.48697C8.04402 1.49746 8.01752 1.51331 8.00595 1.52216C7.97073 1.5491 7.92155 1.57941 7.91304 1.57941C7.90862 1.57941 7.905 1.58227 7.905 1.58577C7.905 1.58927 7.89459 1.59677 7.88187 1.60243C7.86914 1.60809 7.84853 1.62222 7.83607 1.63383C7.8236 1.64543 7.79521 1.66499 7.77297 1.67728C7.75074 1.68958 7.71929 1.70979 7.7031 1.72219C7.66945 1.74796 7.52784 1.8402 7.52194 1.8402C7.51978 1.8402 7.51109 1.84683 7.50263 1.85493C7.47379 1.88253 7.4423 1.9074 7.4423 1.90258C7.4423 1.89994 7.42734 1.91059 7.40904 1.92625C7.39075 1.94191 7.36531 1.96019 7.35252 1.96687C7.33972 1.97355 7.32318 1.98469 7.31577 1.99163C7.2858 2.0197 7.23913 2.05547 7.21658 2.06766C7.20343 2.07477 7.17731 2.09275 7.15854 2.10762C7.13977 2.12248 7.12022 2.13465 7.1151 2.13465C7.10999 2.13465 7.10569 2.13748 7.10555 2.14096C7.10541 2.14443 7.07883 2.16619 7.04646 2.18933C6.97687 2.23908 6.87747 2.31272 6.86093 2.32678C6.85449 2.33225 6.82934 2.3525 6.80505 2.37177C6.78075 2.39106 6.76088 2.40994 6.76088 2.41375C6.76088 2.41756 6.75693 2.42068 6.75211 2.42068C6.74729 2.42068 6.73877 2.4244 6.73319 2.42896C6.68808 2.46574 6.67001 2.47806 6.65362 2.48319C6.64321 2.48645 6.63469 2.49264 6.63469 2.49696C6.63469 2.50127 6.62878 2.5048 6.62157 2.5048C6.61436 2.5048 6.61017 2.50764 6.61225 2.51111C6.61433 2.51459 6.57955 2.54475 6.53493 2.57815C6.4269 2.65902 6.41066 2.6721 6.37492 2.70699C6.35816 2.72335 6.32658 2.74985 6.30475 2.76588C6.28291 2.78192 6.26494 2.79978 6.26479 2.80556C6.26465 2.81134 6.26012 2.81607 6.25472 2.81607C6.24932 2.81607 6.24732 2.81849 6.25027 2.82145C6.25323 2.8244 6.24724 2.83747 6.23696 2.85049C6.22668 2.8635 6.20501 2.89179 6.18882 2.91336C6.17262 2.93493 6.14305 2.97202 6.1231 2.99578C6.10315 3.01956 6.07483 3.06077 6.06016 3.08738C6.0455 3.11399 6.03059 3.13575 6.02704 3.13575C6.02348 3.13575 6.02057 3.13976 6.02057 3.14466C6.02057 3.15418 5.97012 3.2222 5.95957 3.22689C5.95611 3.22843 5.95327 3.23479 5.95327 3.24101C5.95327 3.24724 5.94829 3.25733 5.94221 3.26345C5.92698 3.27876 5.8739 3.3626 5.85161 3.40655C5.8415 3.42649 5.83088 3.44471 5.828 3.44702C5.80551 3.46513 5.69564 3.73213 5.67048 3.8298C5.64122 3.94341 5.63502 3.96548 5.62588 3.98868C5.62061 4.00204 5.6142 4.02664 5.61163 4.04336C5.60905 4.06008 5.59623 4.09648 5.58313 4.12424C5.5584 4.17666 5.55196 4.19857 5.54404 4.25752C5.54 4.28754 5.53017 4.32947 5.51017 4.40186C5.50761 4.41111 5.50066 4.44329 5.4947 4.47336C5.48874 4.50344 5.47755 4.55455 5.46982 4.58694C5.44257 4.70126 5.44314 4.95071 5.47087 5.04122C5.48853 5.09888 5.49207 5.16154 5.48762 5.33814C5.48491 5.44593 5.481 5.53682 5.47896 5.54015C5.47691 5.54346 5.47422 5.58399 5.473 5.6302C5.47177 5.67642 5.468 5.72559 5.46462 5.73947C5.46123 5.75335 5.45621 5.80125 5.45346 5.84591C5.45071 5.89058 5.44109 5.96296 5.43208 6.00676C5.42306 6.05057 5.41173 6.12192 5.40689 6.16532C5.3792 6.41356 5.35045 6.57052 5.32075 6.63542C5.31225 6.65399 5.30943 6.66373 5.30249 6.69851C5.30157 6.70314 5.29852 6.71071 5.29571 6.71534C5.29291 6.71996 5.28779 6.74073 5.28435 6.7615C5.28092 6.78226 5.27285 6.81413 5.26642 6.83233C5.26 6.85054 5.25271 6.87709 5.25021 6.89133C5.24275 6.93396 5.22132 7.02456 5.21125 7.05605C5.20608 7.07224 5.20089 7.094 5.19973 7.1044C5.1945 7.15114 5.1851 7.20092 5.16675 7.27898C5.15464 7.3305 5.14506 7.40387 5.14205 7.46827C5.13933 7.52611 5.13334 7.59614 5.12873 7.6239C5.12412 7.65166 5.11665 7.76902 5.11214 7.88469C5.10385 8.09764 5.0995 8.18021 5.08979 8.30953C5.08684 8.34886 5.0852 8.40375 5.08616 8.43152C5.09386 8.65565 5.08431 8.91823 5.06396 9.04143C5.06129 9.05763 5.05868 9.15806 5.05817 9.26461C5.05726 9.45312 5.05672 9.4589 5.03835 9.47861C5.02796 9.48977 5.01946 9.50385 5.01946 9.50993C5.01946 9.51599 5.01504 9.52095 5.00964 9.52095C5.00425 9.52095 5.00203 9.52316 5.00472 9.52585C5.00741 9.52853 5.00443 9.54316 4.99809 9.55832C4.99175 9.5735 4.98469 9.59626 4.98239 9.6089C4.9801 9.62155 4.97221 9.65003 4.96485 9.67219C4.95345 9.7065 4.94754 9.71327 4.92502 9.71777C4.91047 9.72068 4.89266 9.72819 4.88541 9.73447C4.87424 9.74414 4.7926 9.77481 4.7501 9.78529C4.74306 9.78703 4.7071 9.80352 4.67018 9.82195C4.63324 9.84038 4.57843 9.862 4.54835 9.86999C4.51828 9.87798 4.48421 9.88954 4.47264 9.89568C4.46107 9.90182 4.43268 9.91345 4.40954 9.92151C4.38641 9.92958 4.35744 9.94308 4.34515 9.95151C4.33287 9.95994 4.31875 9.96683 4.31377 9.96683C4.30879 9.96683 4.27909 9.97681 4.24777 9.98902C4.19904 10.008 4.1291 10.0348 4.06462 10.0593C4.05537 10.0628 4.03721 10.0699 4.02427 10.0751C4.01133 10.0803 3.99366 10.0846 3.98501 10.0846C3.97636 10.0846 3.96802 10.0874 3.96647 10.0909C3.96187 10.1013 3.85026 10.1503 3.78701 10.1698C3.75462 10.1797 3.70162 10.2002 3.66923 10.2153C3.55225 10.2697 3.5005 10.2905 3.48836 10.2882C3.48604 10.2877 3.47571 10.2929 3.4654 10.2996C3.45509 10.3064 3.4371 10.3127 3.42544 10.3137C3.41377 10.3146 3.40423 10.3181 3.40423 10.3214C3.40423 10.3247 3.39572 10.3298 3.3853 10.3327C3.3749 10.3356 3.34745 10.3468 3.32431 10.3575C3.21247 10.4091 3.18435 10.4211 3.17496 10.4211C3.15131 10.4211 2.96989 10.4954 2.85462 10.5524C2.84153 10.5588 2.82668 10.5641 2.82164 10.5641C2.81659 10.5641 2.80649 10.5691 2.79919 10.5751C2.79187 10.5811 2.7594 10.5948 2.72701 10.6055C2.69462 10.6162 2.66623 10.6275 2.66392 10.6306C2.65923 10.6369 2.61036 10.6575 2.53238 10.686C2.50399 10.6964 2.47191 10.711 2.4611 10.7186C2.45029 10.7262 2.43093 10.7324 2.41808 10.7324C2.40523 10.7324 2.39471 10.7368 2.39471 10.7422C2.39471 10.7476 2.39224 10.7495 2.38922 10.7465C2.38621 10.7435 2.3474 10.7595 2.30299 10.7821C2.21754 10.8255 2.13883 10.8586 2.12088 10.8586C2.11494 10.8586 2.10881 10.8624 2.10725 10.8671C2.1057 10.8717 2.09643 10.8771 2.08668 10.879C2.07693 10.8809 2.04665 10.8936 2.01941 10.9073C1.99217 10.921 1.93012 10.9481 1.88154 10.9676C1.83296 10.9871 1.78724 11.0084 1.77993 11.0149C1.77262 11.0215 1.76292 11.0268 1.75837 11.0268C1.75382 11.0268 1.73443 11.0344 1.71527 11.0436C1.69612 11.0529 1.67648 11.0605 1.67163 11.0605C1.66678 11.0605 1.66281 11.0638 1.66281 11.0679C1.66281 11.0752 1.6248 11.0937 1.60286 11.0971C1.5965 11.098 1.58658 11.1018 1.58079 11.1054C1.57501 11.109 1.57027 11.1095 1.57027 11.1065C1.57027 11.1035 1.55893 11.1106 1.54508 11.1222C1.53122 11.1339 1.51135 11.1461 1.50091 11.1495C1.49048 11.1528 1.46869 11.1638 1.4525 11.1739C1.39078 11.2126 1.34195 11.2371 1.32651 11.2371C1.31769 11.2371 1.30833 11.2406 1.3057 11.2449C1.30307 11.2491 1.2754 11.2675 1.24421 11.2857C1.1355 11.3491 1.02764 11.417 1.02486 11.4238C1.02331 11.4275 1.01866 11.4306 1.01453 11.4306C1.00813 11.4306 0.909914 11.4925 0.884642 11.5124C0.880015 11.5161 0.866765 11.5253 0.855198 11.5328C0.843631 11.5403 0.825998 11.5535 0.81602 11.5622C0.806043 11.5708 0.789487 11.5835 0.77924 11.5905C0.768985 11.5974 0.755651 11.6078 0.749611 11.6136C0.743571 11.6194 0.736504 11.6241 0.733913 11.6241C0.731322 11.6241 0.721462 11.6307 0.712006 11.6388C0.702551 11.6469 0.692094 11.6532 0.688779 11.6527C0.685456 11.6523 0.678314 11.6579 0.672904 11.6653C0.667486 11.6727 0.658022 11.679 0.651873 11.6792C0.645715 11.6794 0.641618 11.6841 0.642779 11.6897C0.643931 11.6953 0.639388 11.6998 0.632683 11.6998C0.62597 11.6998 0.617457 11.7046 0.613755 11.7103C0.605208 11.7237 0.526558 11.784 0.517674 11.784C0.509926 11.784 0.427659 11.8664 0.4099 11.8919C0.40327 11.9014 0.394917 11.9074 0.391341 11.9052C0.387757 11.903 0.378041 11.9116 0.369738 11.9243C0.361434 11.937 0.342338 11.9597 0.327304 11.9747C0.312271 11.9898 0.299963 12.006 0.299963 12.0108C0.299963 12.0156 0.293342 12.0263 0.285241 12.0345C0.277148 12.0428 0.253483 12.0721 0.232662 12.0997C0.211841 12.1273 0.191961 12.1512 0.188495 12.1527C0.185029 12.1543 0.182186 12.1609 0.182186 12.1674C0.182186 12.174 0.177887 12.1784 0.172621 12.1772C0.167363 12.1761 0.160372 12.1846 0.157074 12.1962C0.153785 12.2078 0.137691 12.2419 0.12132 12.2719C0.089243 12.3308 0.0570646 12.4293 0.0347963 12.5369C0.027124 12.5739 0.0155818 12.6248 0.0091461 12.65C0.0012382 12.6809 -0.00148751 12.7274 0.000758669 12.793C0.00539404 12.9289 0.0132599 12.9908 0.0438735 13.1319C0.046616 13.1446 0.0488202 13.1568 0.0487613 13.1591C0.0487108 13.1614 0.052303 13.1757 0.0567449 13.1908C0.0611783 13.2059 0.0667896 13.2316 0.069204 13.2478C0.0732169 13.2747 0.0882166 13.3323 0.107347 13.3941C0.111494 13.4075 0.114885 13.4275 0.114885 13.4384C0.114885 13.462 0.167514 13.5744 0.189707 13.5982C0.198254 13.6074 0.223442 13.6409 0.245685 13.6727C0.267928 13.7045 0.293965 13.74 0.303555 13.7514C0.329231 13.7821 0.505021 13.9544 0.510675 13.9544C0.513342 13.9544 0.522957 13.961 0.532051 13.9691C0.563994 13.9976 0.653387 14.0638 0.659839 14.0638C0.663432 14.0638 0.678574 14.0749 0.693482 14.0886C0.708397 14.1022 0.720596 14.1116 0.720596 14.1095C0.720596 14.1074 0.753716 14.1272 0.794206 14.1533C0.834688 14.1795 0.893543 14.2133 0.924989 14.2284C0.956436 14.2435 0.986721 14.2592 0.992291 14.2634C0.99786 14.2675 1.01946 14.2781 1.04028 14.287C1.0611 14.2958 1.08092 14.307 1.08432 14.3117C1.08772 14.3165 1.09055 14.3174 1.09063 14.3137C1.09069 14.3101 1.09869 14.3145 1.10841 14.3235C1.11812 14.3326 1.13597 14.3425 1.14808 14.3455C1.16018 14.3486 1.1861 14.3583 1.20567 14.3673C1.22525 14.3762 1.24541 14.3835 1.25048 14.3835C1.25556 14.3835 1.2851 14.3954 1.31614 14.4099C1.39832 14.4484 1.56223 14.5097 1.58291 14.5097C1.59009 14.5097 1.62142 14.5223 1.65252 14.5378C1.68363 14.5533 1.72233 14.5707 1.73853 14.5764C1.75472 14.5822 1.78501 14.5934 1.80583 14.6012C1.82665 14.609 1.89668 14.6299 1.96146 14.6477C2.02624 14.6654 2.0887 14.6844 2.10027 14.69C2.11184 14.6955 2.14969 14.7082 2.1844 14.7181C2.2191 14.728 2.27588 14.7443 2.31059 14.7542C2.34529 14.7641 2.38273 14.7739 2.39379 14.7759C2.418 14.7804 2.55359 14.819 2.57138 14.8265C2.58445 14.8321 2.59748 14.8361 2.61555 14.8401C2.62133 14.8414 2.6308 14.8454 2.63658 14.849C2.64237 14.8526 2.64709 14.8533 2.64709 14.8506C2.64709 14.8478 2.65408 14.8493 2.66261 14.8539C2.67115 14.8584 2.68725 14.8641 2.69837 14.8665C2.73334 14.8739 2.79379 14.8896 2.80693 14.8945C2.81387 14.8972 2.82251 14.8987 2.82611 14.8979C2.82972 14.8971 2.84381 14.9022 2.85741 14.9093C2.87101 14.9163 2.8851 14.9212 2.8887 14.9202C2.90288 14.9163 2.98061 14.933 3.21074 14.9895C3.34261 15.0219 3.46754 15.0519 3.48836 15.0562C3.61041 15.0815 3.6551 15.0917 3.67764 15.0994C3.69152 15.1041 3.71234 15.1099 3.72391 15.1122C3.73548 15.1144 3.79037 15.1279 3.8459 15.1421C3.90142 15.1562 3.96388 15.169 3.9847 15.1705C4.00553 15.1719 4.07745 15.1848 4.14454 15.1991C4.21164 15.2134 4.27431 15.2265 4.28383 15.2283C4.29334 15.23 4.3312 15.2393 4.36795 15.249C4.40471 15.2586 4.47735 15.2722 4.52936 15.2792C4.58139 15.2862 4.64196 15.2961 4.66397 15.3012C4.68598 15.3063 4.71345 15.3118 4.72502 15.3135C4.73659 15.3151 4.7726 15.3203 4.80505 15.3251C4.8375 15.3298 4.8862 15.3413 4.91329 15.3506C4.94038 15.3599 4.96581 15.3655 4.9698 15.363C4.97379 15.3606 4.98526 15.363 4.99531 15.3683C5.00535 15.3737 5.03099 15.3793 5.05227 15.3807C5.12076 15.3853 5.18275 15.393 5.21295 15.4007C5.22915 15.4049 5.26322 15.4125 5.28867 15.4177C5.31411 15.4228 5.34251 15.4287 5.35176 15.4307C5.36101 15.4328 5.38751 15.4367 5.41065 15.4394C5.43378 15.4421 5.48489 15.4497 5.52422 15.4563C5.56355 15.4629 5.61087 15.4705 5.62938 15.4732C5.64789 15.4759 5.68953 15.485 5.72192 15.4934C5.8148 15.5176 5.86825 15.5268 5.94065 15.531C5.97766 15.5332 6.03634 15.5408 6.07104 15.548C6.10574 15.5551 6.14928 15.563 6.16779 15.5654C6.24657 15.5758 6.25685 15.5775 6.26341 15.5816C6.26721 15.5839 6.32089 15.5899 6.38271 15.5949C6.44453 15.5999 6.51232 15.608 6.53335 15.6129C6.55438 15.6177 6.58295 15.6231 6.59683 15.6249C6.61071 15.6266 6.63343 15.63 6.64731 15.6324C6.66119 15.6348 6.69715 15.6388 6.72723 15.6412C6.7573 15.6437 6.78759 15.6475 6.79453 15.6496C6.80147 15.6517 6.82378 15.6556 6.84411 15.6581C6.86444 15.6606 6.88444 15.6648 6.88855 15.6673C6.89266 15.6699 6.91578 15.6737 6.93993 15.6759C6.96406 15.6781 7.01031 15.6837 7.0427 15.6884C7.07509 15.6931 7.1527 15.7024 7.21516 15.709C7.27763 15.7155 7.3628 15.7249 7.40445 15.7297C7.47133 15.7375 7.59194 15.7473 7.62738 15.7478C7.63432 15.7479 7.65325 15.7513 7.66945 15.7553C7.68564 15.7593 7.71782 15.7647 7.74095 15.7672C7.76409 15.7697 7.79627 15.7737 7.81246 15.7762C7.82866 15.7787 7.86083 15.7822 7.88397 15.784C7.94909 15.7891 8.02523 15.7969 8.04381 15.8004C8.05306 15.8021 8.08146 15.806 8.1069 15.8091C8.13235 15.8121 8.17967 15.8182 8.21206 15.8227C8.3102 15.8362 8.35039 15.8395 8.46416 15.8434C8.52416 15.8454 8.5942 15.851 8.6198 15.8557C8.6454 15.8605 8.69284 15.8664 8.72523 15.8689C8.75762 15.8714 8.79548 15.8769 8.80936 15.8812C8.82324 15.8854 8.84217 15.8887 8.85142 15.8885C8.86068 15.8883 8.90989 15.8904 8.96079 15.8931C9.01168 15.8959 9.09308 15.9 9.14166 15.9022C9.25372 15.9073 9.31688 15.9124 9.34356 15.9182C9.35513 15.9208 9.38731 15.9248 9.41507 15.9272C9.44283 15.9295 9.49205 15.9337 9.52444 15.9364C9.55682 15.9392 9.64389 15.943 9.71793 15.945C9.90116 15.9498 10.0725 15.9596 10.1554 15.9701C10.1844 15.9737 10.2813 15.9804 10.3909 15.9863C10.4882 15.9916 10.9985 15.9998 11.2112 15.9995C11.3014 15.9994 11.4566 15.9995 11.5561 15.9998C11.8593 16.0007 12.2317 15.9981 12.2369 15.995C12.2395 15.9934 12.2777 15.9895 12.3216 15.9864C12.3656 15.9833 12.4072 15.9792 12.4142 15.9773C12.4211 15.9755 12.4665 15.9719 12.5151 15.9695C12.5637 15.9671 12.6129 15.9634 12.6245 15.9614C12.6443 15.9579 12.6849 15.9545 12.8348 15.9437C12.9482 15.9356 13.015 15.9308 13.0535 15.9281C13.0744 15.9266 13.1122 15.9212 13.1377 15.916C13.1631 15.9108 13.218 15.9048 13.2597 15.9026C13.4006 15.8953 13.4966 15.8871 13.5625 15.8769C13.581 15.8741 13.6094 15.8705 13.6256 15.8689C13.7292 15.8592 13.7764 15.8533 13.8023 15.847C13.8185 15.843 13.8525 15.8375 13.878 15.8347C13.9034 15.8319 13.9602 15.8225 14.0042 15.8139C14.0481 15.8052 14.1049 15.7957 14.1304 15.7928C14.1681 15.7884 14.3314 15.7579 14.4038 15.7417C14.4279 15.7363 14.4649 15.7307 14.5126 15.7251C14.5354 15.7224 14.5565 15.7187 14.5595 15.7168C14.5651 15.7134 14.5715 15.7121 14.6646 15.6966C14.7284 15.6859 14.7513 15.681 14.7592 15.6761C14.7627 15.674 14.7797 15.67 14.797 15.6673C14.8143 15.6645 14.8446 15.6583 14.8643 15.6535C14.884 15.6487 14.9115 15.6425 14.9254 15.6399C14.9598 15.6333 14.9655 15.6319 14.98 15.626C14.987 15.6232 15.004 15.6189 15.0179 15.6165C15.0318 15.614 15.0526 15.6102 15.0642 15.608C15.0757 15.6059 15.1117 15.5997 15.1441 15.5945C15.1765 15.5892 15.2276 15.5779 15.2577 15.5695C15.3036 15.5567 15.3638 15.5444 15.39 15.5425C15.3936 15.5423 15.4173 15.5348 15.4427 15.526C15.4793 15.5134 15.6257 15.4741 15.7035 15.4561C15.7105 15.4545 15.7171 15.4524 15.7183 15.4515C15.7194 15.4505 15.7232 15.4491 15.7267 15.4483C15.7301 15.4475 15.7413 15.444 15.7515 15.4405C15.7617 15.437 15.7882 15.4309 15.8104 15.4269C15.8326 15.423 15.881 15.4116 15.9181 15.4018C15.9551 15.3919 15.9933 15.3825 16.003 15.3809C16.0127 15.3792 16.0326 15.3718 16.0472 15.3642C16.0617 15.3567 16.0737 15.3529 16.0737 15.3559C16.0737 15.3589 16.0784 15.3576 16.0842 15.3529C16.09 15.3483 16.1231 15.3382 16.1578 15.3305C16.1925 15.3228 16.2417 15.3095 16.2672 15.301C16.2926 15.2925 16.3475 15.2752 16.3892 15.2625C16.4308 15.2498 16.4971 15.2289 16.5364 15.216C16.5757 15.2031 16.62 15.1907 16.6349 15.1884C16.6671 15.1835 16.7474 15.1579 16.7593 15.1488C16.7639 15.1452 16.7848 15.1374 16.8056 15.1313C16.8264 15.1252 16.8526 15.1155 16.8639 15.1098C16.8751 15.1041 16.887 15.1011 16.8903 15.1031C16.8935 15.1051 16.9009 15.1011 16.9066 15.0942C16.9123 15.0874 16.9223 15.0817 16.9287 15.0817C16.9351 15.0817 16.947 15.078 16.955 15.0734C16.9693 15.0652 16.9931 15.0564 17.0958 15.0211C17.1703 14.9954 17.2965 14.9464 17.3061 14.9393C17.3108 14.936 17.3335 14.9262 17.3566 14.9176C17.3797 14.9091 17.4574 14.873 17.5291 14.8375C17.6008 14.802 17.7068 14.7526 17.7646 14.7277C17.8225 14.7029 17.8948 14.6682 17.9253 14.6508C17.9558 14.6333 17.9845 14.619 17.9889 14.619C17.9979 14.619 18.0646 14.5894 18.0843 14.5766C18.0912 14.5721 18.1102 14.5618 18.1264 14.5538C18.1426 14.5457 18.1577 14.5369 18.16 14.5342C18.1623 14.5315 18.1983 14.5121 18.2399 14.4911C18.2816 14.4702 18.3535 14.4336 18.3998 14.4098C18.4461 14.3861 18.4886 14.3667 18.4944 14.3666C18.5002 14.3666 18.5049 14.3635 18.5049 14.3596C18.5049 14.3558 18.539 14.3364 18.5807 14.3166C18.6223 14.2968 18.6564 14.2779 18.6564 14.2745C18.6564 14.271 18.6791 14.2563 18.7069 14.2418C18.7713 14.208 18.792 14.1962 18.8051 14.1858C18.8373 14.1601 18.8495 14.153 18.9634 14.0943C19.0004 14.0752 19.0326 14.0577 19.0349 14.0553C19.0373 14.0529 19.0533 14.0416 19.0706 14.0301C19.088 14.0185 19.1021 14.006 19.1022 14.0023C19.1022 13.9986 19.1058 13.9977 19.1101 14.0004C19.1145 14.0031 19.1211 14.0004 19.1249 13.9946C19.1286 13.9887 19.1411 13.9784 19.1527 13.9718C19.1643 13.9652 19.1946 13.9478 19.22 13.9331C19.2455 13.9184 19.2793 13.8992 19.2953 13.8905C19.3112 13.8817 19.3339 13.866 19.3456 13.8556C19.3574 13.8452 19.3702 13.8366 19.3741 13.8366C19.378 13.8366 19.4075 13.8196 19.4396 13.7988C19.4718 13.778 19.5018 13.7609 19.5063 13.7609C19.5108 13.7609 19.5145 13.758 19.5145 13.7545C19.5145 13.751 19.522 13.7444 19.5311 13.7398C19.5522 13.7293 19.6668 13.6513 19.6799 13.6385C19.6853 13.6333 19.7014 13.6241 19.7156 13.6182C19.7299 13.6123 19.7416 13.6048 19.7416 13.6014C19.7416 13.5981 19.7653 13.5801 19.7942 13.5613C19.8231 13.5426 19.8551 13.5192 19.8653 13.5095C19.8756 13.4997 19.8875 13.4917 19.892 13.4917C19.8964 13.4917 19.9013 13.4887 19.9028 13.4849C19.9044 13.4812 19.9246 13.4653 19.9477 13.4495C19.9708 13.4338 19.9936 13.418 19.9982 13.4144C20.0363 13.3847 20.1896 13.273 20.1923 13.273C20.1941 13.273 20.2024 13.2676 20.2105 13.2609C20.2187 13.2542 20.2418 13.2353 20.2619 13.2188C20.282 13.2023 20.3019 13.191 20.306 13.1936C20.3102 13.1962 20.3137 13.1943 20.3137 13.1895C20.3137 13.1846 20.3297 13.1706 20.3492 13.1582C20.3688 13.1458 20.3922 13.1259 20.4013 13.1139C20.4268 13.0802 20.519 12.9911 20.5261 12.9933C20.5295 12.9945 20.5324 12.9923 20.5324 12.9884C20.5324 12.9777 20.7817 12.7262 20.7923 12.7262C20.7974 12.7262 20.8016 12.723 20.8016 12.7191C20.8016 12.7114 20.8441 12.6887 20.8542 12.6911C20.8576 12.6919 20.8605 12.6883 20.8605 12.6832C20.8605 12.6781 20.8657 12.6759 20.8721 12.6784C20.8785 12.6808 20.8918 12.6772 20.9016 12.6704C20.9114 12.6635 20.9194 12.661 20.9195 12.6647C20.9196 12.6684 20.9225 12.667 20.926 12.6615C20.9295 12.656 20.989 12.6362 21.0583 12.6174C21.1277 12.5986 21.1957 12.5775 21.2096 12.5706C21.2235 12.5636 21.2658 12.5488 21.3036 12.5375C21.3415 12.5263 21.3793 12.5136 21.3878 12.5092C21.3962 12.5048 21.4172 12.4987 21.4344 12.4956C21.4517 12.4925 21.4801 12.4837 21.4975 12.4761C21.515 12.4684 21.5312 12.4617 21.5335 12.4611C21.5857 12.4475 21.6174 12.4361 21.6344 12.425C21.646 12.4174 21.6574 12.4107 21.6597 12.4102C21.662 12.4097 21.6746 12.4049 21.6876 12.3995C21.7006 12.3941 21.7148 12.3897 21.7192 12.3897C21.7236 12.3897 21.7338 12.3859 21.7418 12.3813C21.7499 12.3767 21.7829 12.3631 21.8153 12.3511C21.8477 12.3391 21.8892 12.3237 21.9075 12.3169C21.9386 12.3052 22.0886 12.2358 22.142 12.2084C22.1551 12.2017 22.1712 12.1962 22.1777 12.1962C22.1843 12.1962 22.1897 12.1924 22.1897 12.1878C22.1897 12.1831 22.1958 12.1794 22.2033 12.1794C22.2108 12.1794 22.2349 12.1661 22.257 12.1499C22.279 12.1337 22.301 12.1205 22.3058 12.1205C22.3106 12.1205 22.3157 12.1176 22.3173 12.1142C22.3188 12.1107 22.339 12.0981 22.3621 12.0861C22.4744 12.028 22.5227 12.0009 22.5373 11.9877C22.546 11.9797 22.5537 11.9751 22.5544 11.9773C22.5563 11.9835 22.6707 11.9156 22.6931 11.8949C22.7159 11.8739 22.9275 11.7167 22.933 11.7167C22.936 11.7167 22.945 11.7108 22.9531 11.7037C22.9775 11.6822 23.0554 11.6241 23.0598 11.6241C23.0643 11.6241 23.1173 11.568 23.175 11.5021C23.1952 11.479 23.2166 11.457 23.2225 11.4532C23.2284 11.4495 23.2314 11.4434 23.2291 11.4398C23.2269 11.4362 23.2363 11.4224 23.25 11.4093C23.2637 11.3962 23.2749 11.3808 23.2749 11.3751C23.2749 11.3694 23.278 11.3635 23.2818 11.3619C23.2967 11.3558 23.3578 11.2622 23.3961 11.1867C23.4183 11.1427 23.4441 11.0944 23.4533 11.0793C23.4676 11.0559 23.5037 10.9418 23.5139 10.888C23.5156 10.8788 23.5217 10.8541 23.5273 10.8333C23.5329 10.8125 23.5391 10.786 23.5411 10.7744C23.5431 10.7629 23.5506 10.7326 23.5579 10.7071C23.5652 10.6817 23.5723 10.6549 23.5737 10.6475C23.5751 10.6402 23.5805 10.6193 23.5858 10.6012C23.6098 10.5176 23.6192 10.3985 23.6157 10.2192C23.6113 9.99506 23.6042 9.90654 23.5819 9.79857C23.5719 9.75029 23.5516 9.60741 23.5513 9.58405C23.5512 9.57017 23.5478 9.54745 23.5438 9.53357C23.5397 9.51969 23.5344 9.48562 23.5319 9.45786C23.5276 9.40996 23.5249 9.39169 23.5143 9.33798C23.5118 9.32525 23.508 9.25617 23.5059 9.18445C23.5038 9.11273 23.4999 9.03134 23.4973 9.00358C23.4947 8.97582 23.4926 8.94742 23.4926 8.94048C23.4926 8.93354 23.4887 8.90136 23.484 8.86897C23.4793 8.83659 23.4739 8.78926 23.4719 8.76382C23.4699 8.73837 23.4638 8.68537 23.4583 8.64604C23.4528 8.60671 23.4489 8.57229 23.4495 8.56953C23.4502 8.56678 23.4431 8.51946 23.4339 8.46438C23.4247 8.40929 23.4133 8.33582 23.4087 8.30112C23.4011 8.24425 23.387 8.16648 23.3576 8.0193C23.352 7.99153 23.347 7.96693 23.3465 7.96461C23.3361 7.92094 23.333 7.90722 23.3303 7.89307C23.3286 7.8838 23.3231 7.86109 23.3182 7.8426C23.3133 7.82411 23.307 7.79005 23.3041 7.76692C23.3012 7.74378 23.2936 7.70593 23.2873 7.68279C23.281 7.65966 23.2739 7.62937 23.2716 7.61549C23.2694 7.60161 23.2653 7.58079 23.2626 7.56922C23.2599 7.55765 23.2558 7.53115 23.2535 7.51033C23.2512 7.48951 23.2479 7.46301 23.2462 7.45144C23.2445 7.43988 23.2405 7.40993 23.2373 7.38489C23.2341 7.35985 23.2276 7.32957 23.223 7.31759C23.2183 7.30561 23.2133 7.29013 23.2118 7.28319C23.2102 7.27625 23.1957 7.21757 23.1794 7.15279C23.1631 7.08802 23.1472 7.01987 23.1441 7.00137C23.141 6.98286 23.1275 6.92182 23.1141 6.86572C23.1008 6.80962 23.0898 6.75473 23.0897 6.74374C23.0896 6.73274 23.0816 6.70671 23.0719 6.68589C23.0623 6.66507 23.0475 6.62532 23.0391 6.59756C23.0307 6.5698 23.0201 6.53573 23.0155 6.52184C23.0007 6.47711 22.9898 6.43823 22.9859 6.41669C22.9839 6.40512 22.9792 6.38051 22.9754 6.362C22.9717 6.3435 22.9697 6.32334 22.9709 6.31722C22.9721 6.31109 22.9686 6.30073 22.9632 6.29419C22.9578 6.28764 22.9555 6.27657 22.9582 6.26957C22.9609 6.26257 22.9602 6.25685 22.9566 6.25685C22.953 6.25685 22.9492 6.24218 22.9482 6.22426C22.9471 6.20634 22.9444 6.18268 22.9421 6.17168C22.9398 6.16068 22.9367 6.06272 22.9352 5.95399C22.9327 5.76524 22.9306 5.73848 22.9136 5.68058C22.9095 5.6667 22.9018 5.62884 22.8965 5.59645C22.8874 5.54078 22.8811 5.50949 22.833 5.28519C22.7975 5.11907 22.7725 5.02313 22.7608 5.00731C22.7572 5.00254 22.7525 4.98867 22.7503 4.9765C22.7481 4.96432 22.7426 4.9474 22.7382 4.9389C22.7233 4.91065 22.7138 4.84059 22.708 4.71733C22.7029 4.60904 22.6982 4.57629 22.6729 4.47336C22.6226 4.26899 22.6202 4.26063 22.5881 4.17688C22.5725 4.13642 22.5598 4.09784 22.5598 4.09114C22.5598 4.08444 22.5561 4.07662 22.5514 4.07376C22.5468 4.0709 22.543 4.06273 22.543 4.05561C22.543 4.04245 22.5185 3.98471 22.5096 3.97702C22.5069 3.9747 22.4957 3.95388 22.4847 3.93075C22.4737 3.90761 22.4615 3.88301 22.4577 3.87607C22.4539 3.86913 22.4429 3.84641 22.4333 3.82559C22.3998 3.75317 22.3713 3.70326 22.3311 3.64679C22.3088 3.61554 22.2906 3.58829 22.2906 3.58622C22.2906 3.58416 22.2793 3.56564 22.2654 3.54507C22.2515 3.5245 22.2402 3.5044 22.2402 3.5004C22.2402 3.49639 22.2305 3.48275 22.2188 3.47007C22.207 3.45739 22.1996 3.44702 22.2023 3.44702C22.205 3.44702 22.1975 3.43661 22.1857 3.42389C22.1739 3.41116 22.1622 3.39412 22.1596 3.38603C22.157 3.37793 22.1511 3.37131 22.1464 3.37131C22.1417 3.37131 22.1392 3.36703 22.141 3.3618C22.1427 3.35658 22.1345 3.34207 22.1227 3.32958C22.111 3.31709 22.0843 3.28474 22.0635 3.2577C22.0427 3.23066 22.0117 3.1931 21.9947 3.17425C21.9778 3.15539 21.9475 3.1212 21.9274 3.09827C21.9074 3.07535 21.8598 3.02452 21.8216 2.98532C21.7835 2.94611 21.7522 2.91092 21.7522 2.90712C21.7522 2.90331 21.7487 2.9002 21.7445 2.9002C21.7345 2.9002 21.6909 2.8566 21.6615 2.81725C21.6489 2.80041 21.6308 2.78023 21.6212 2.77243C21.6115 2.76461 21.5844 2.73906 21.5609 2.71564C21.5373 2.69222 21.5154 2.67306 21.5122 2.67306C21.5089 2.67306 21.4922 2.65886 21.4749 2.64151C21.4576 2.62416 21.4328 2.60239 21.4197 2.59314C21.4066 2.58388 21.3748 2.55648 21.349 2.53225C21.3233 2.50803 21.2904 2.48256 21.2761 2.47567C21.2617 2.46878 21.2348 2.44885 21.2162 2.43139C21.1976 2.41393 21.161 2.38491 21.1348 2.3669C21.0917 2.33729 21.0474 2.30097 21.0112 2.26548C21.0039 2.2583 20.9942 2.25242 20.9896 2.25242C20.985 2.25242 20.9736 2.2439 20.9643 2.2335C20.9549 2.22309 20.9385 2.20889 20.9279 2.20195C20.9008 2.18419 20.8574 2.14914 20.8501 2.13899C20.8467 2.13429 20.8439 2.13372 20.8438 2.13773C20.8437 2.14174 20.8285 2.13132 20.81 2.11459C20.7915 2.09786 20.7735 2.08416 20.77 2.08416C20.7666 2.08415 20.7527 2.07469 20.7393 2.06313C20.7258 2.05156 20.7124 2.04211 20.7095 2.04211C20.7065 2.04211 20.6872 2.02712 20.6666 2.0088C20.646 1.99048 20.6225 1.96966 20.6144 1.96253C20.6063 1.9554 20.5974 1.94957 20.5945 1.94957C20.5892 1.94957 20.4956 1.88242 20.4735 1.86272C20.4666 1.85653 20.4369 1.83663 20.4076 1.81849C20.3783 1.80036 20.3392 1.77322 20.3206 1.75818C20.302 1.74314 20.2836 1.73084 20.2795 1.73084C20.2755 1.73084 20.2655 1.72378 20.2572 1.71515C20.2489 1.70653 20.2194 1.687 20.1917 1.67177C20.1639 1.65654 20.1351 1.6371 20.1276 1.62857C20.1201 1.62004 20.1097 1.61306 20.1045 1.61306C20.0992 1.61306 20.0949 1.60928 20.0949 1.60465C20.0949 1.60002 20.0913 1.59624 20.0869 1.59624C20.0825 1.59624 20.0651 1.58689 20.0482 1.57547C20.0314 1.56404 20.0028 1.54817 19.9848 1.54019C19.9667 1.53223 19.9519 1.52264 19.9519 1.51891C19.9519 1.51516 19.9462 1.51211 19.9393 1.51211C19.9324 1.51211 19.9267 1.50879 19.9267 1.50472C19.9267 1.50065 19.9153 1.49262 19.9014 1.48687C19.8876 1.48113 19.8762 1.47309 19.8762 1.46903C19.8762 1.46496 19.8734 1.46225 19.8699 1.46299C19.8601 1.4651 19.8195 1.4468 19.814 1.43779C19.8112 1.43335 19.793 1.42137 19.7734 1.41117C19.7538 1.40096 19.727 1.38353 19.7138 1.37244C19.7006 1.36135 19.6844 1.35227 19.6779 1.35227C19.6713 1.35227 19.6659 1.3489 19.6659 1.34477C19.6659 1.34064 19.6555 1.33466 19.6428 1.33148C19.6302 1.3283 19.6179 1.32307 19.6155 1.31987C19.6085 1.3104 19.5639 1.28263 19.5172 1.25865C19.4933 1.24637 19.466 1.22917 19.4566 1.22041C19.4472 1.21165 19.4253 1.19937 19.408 1.19311C19.3907 1.18686 19.3616 1.17089 19.3433 1.15764C19.325 1.14439 19.3037 1.13354 19.2961 1.13354C19.2884 1.13354 19.2738 1.12582 19.2637 1.11639C19.2535 1.10696 19.2453 1.1012 19.2453 1.1036C19.2453 1.10601 19.2282 1.09846 19.2074 1.08683C19.1866 1.0752 19.144 1.05672 19.1127 1.04576C18.9362 0.983772 18.8145 0.939639 18.7694 0.921257C18.7414 0.909816 18.7035 0.89766 18.6853 0.894244C18.6671 0.890828 18.6503 0.885293 18.648 0.881936C18.6457 0.878588 18.6229 0.869755 18.5975 0.862318C18.572 0.854873 18.5115 0.833151 18.4629 0.814038C18.3493 0.76935 18.2733 0.747115 18.074 0.700122C17.9848 0.67909 17.8891 0.656418 17.8614 0.64973C17.8336 0.643051 17.7956 0.635538 17.7769 0.63304C17.7582 0.630541 17.7336 0.626714 17.7223 0.624526C17.711 0.622339 17.6524 0.612967 17.5922 0.603705C17.5321 0.594434 17.4696 0.58317 17.4534 0.578669C17.4008 0.564065 17.2179 0.555147 17.0285 0.557957C16.9267 0.559471 16.8264 0.557368 16.8056 0.553288C16.7675 0.545834 16.6702 0.530885 16.4985 0.506118C16.4476 0.498782 16.3852 0.487543 16.3597 0.481141C16.3178 0.4706 16.1286 0.455953 15.7582 0.434568C15.6842 0.430295 15.5971 0.42502 15.5647 0.42285C15.5323 0.420688 15.4075 0.417247 15.2873 0.415202C15.0703 0.411526 15.0688 0.411375 15.0539 0.391849C15.0457 0.381039 15.0352 0.36762 15.0305 0.362034C15.0259 0.356448 15.0221 0.349651 15.0221 0.346934C15.0221 0.344217 15.0126 0.332523 15.0011 0.320956C14.9895 0.309388 14.98 0.301994 14.98 0.304517C14.98 0.307041 14.9734 0.303213 14.9653 0.296021C14.9266 0.261646 14.8458 0.204693 14.8118 0.187867C14.791 0.17757 14.7531 0.156101 14.7277 0.140176C14.7022 0.124242 14.6719 0.109924 14.6604 0.108343C14.6488 0.106769 14.633 0.102075 14.6252 0.0979279C14.6174 0.093772 14.6034 0.0903732 14.5942 0.0903732C14.585 0.0903732 14.5723 0.0856453 14.5661 0.0798574C14.5547 0.0692659 14.5475 0.0666998 14.5089 0.0596247C14.4974 0.0575047 14.4425 0.0443895 14.3869 0.0304834C14.2906 0.0063391 14.2761 0.00502702 14.0673 0.00155259C13.947 -0.000449616 13.8448 -0.000525494 13.8401 0.00138418ZM13.8149 0.549847C13.7964 0.556787 13.7339 0.573209 13.6761 0.586332C13.5652 0.611478 13.5417 0.61979 13.441 0.669433C13.3419 0.718285 13.2195 0.820995 13.1881 0.881726C13.1795 0.898232 13.1665 0.916723 13.1592 0.92283C13.1389 0.939698 12.8669 0.97154 12.696 0.97705C11.9604 1.0008 11.9494 1.00143 11.8632 1.02444C11.8308 1.03309 11.7323 1.04614 11.6444 1.05346C11.5565 1.06078 11.4392 1.07219 11.3836 1.07882C11.3281 1.08546 11.2316 1.09497 11.1691 1.09997C11.0343 1.11075 10.9915 1.11682 10.9963 1.1245C10.9982 1.12762 10.9404 1.14076 10.8678 1.1537C10.7952 1.16664 10.7131 1.18239 10.6854 1.18871C10.6576 1.19502 10.5592 1.21383 10.4667 1.23051C10.3741 1.24717 10.2568 1.27178 10.2059 1.28517C10.155 1.29857 10.0584 1.32252 9.99134 1.33838C9.92425 1.35425 9.82771 1.37711 9.77681 1.3892C9.72592 1.40129 9.6786 1.4112 9.67166 1.41122C9.66472 1.41124 9.64845 1.41679 9.63551 1.42353C9.62257 1.43029 9.57335 1.44759 9.52614 1.46201C9.47893 1.47642 9.43274 1.49154 9.42348 1.49561C9.41423 1.49968 9.39166 1.50516 9.37333 1.5078C9.35499 1.51043 9.29631 1.52794 9.24293 1.54672C9.18954 1.56549 9.12315 1.5882 9.09539 1.5972C9.06763 1.60618 9.01422 1.62668 8.9767 1.64274C8.93919 1.65881 8.90417 1.67195 8.89889 1.67195C8.8936 1.67195 8.82269 1.70413 8.74133 1.74346C8.65996 1.78279 8.58947 1.81497 8.58468 1.81497C8.5799 1.81497 8.56035 1.82475 8.54125 1.83671C8.50166 1.86149 8.38833 1.92629 8.33825 1.95279C8.31974 1.96259 8.30271 1.97287 8.30039 1.97565C8.29808 1.97842 8.29232 1.98221 8.28759 1.98406C8.28286 1.98591 8.23236 2.0196 8.17537 2.05893C8.11838 2.09826 8.06565 2.13423 8.05819 2.13885C8.05074 2.14348 8.02585 2.16004 8.00287 2.17564C7.9799 2.19126 7.94296 2.21473 7.92078 2.2278C7.89861 2.24087 7.82257 2.29474 7.75182 2.3475C7.68106 2.40027 7.61939 2.44494 7.61476 2.44678C7.60681 2.44993 7.5451 2.49383 7.40607 2.5952C7.37279 2.61946 7.33042 2.64967 7.31191 2.66233C7.2934 2.67499 7.2404 2.71774 7.19413 2.75733C7.11271 2.82702 7.02838 2.89179 7.0191 2.89179C7.00777 2.89179 6.85873 3.00929 6.79144 3.07125C6.75041 3.10904 6.70972 3.14268 6.70101 3.146C6.69229 3.14932 6.68517 3.15785 6.68517 3.16497C6.68517 3.17208 6.66063 3.20603 6.63063 3.24042C6.57006 3.30989 6.3922 3.57234 6.3481 3.65734C6.3325 3.68741 6.31323 3.72148 6.30528 3.73305C6.29733 3.74462 6.26607 3.821 6.23581 3.90279C6.18573 4.03814 6.16607 4.10032 6.12189 4.26305C6.11373 4.29312 6.10057 4.33287 6.09266 4.35138C6.07893 4.38351 6.0432 4.53981 6.02918 4.629C6.01907 4.69336 6.01948 4.9108 6.02979 4.94868C6.06579 5.08102 6.06949 5.18295 6.04997 5.50391C6.03467 5.75535 6.0237 5.87303 6.00799 5.95399C5.9951 6.02039 5.96668 6.21752 5.95766 6.30312C5.95074 6.36872 5.91495 6.54881 5.89495 6.61859C5.88633 6.64867 5.87073 6.71089 5.86027 6.75688C5.84981 6.80286 5.8362 6.85018 5.83001 6.86204C5.82383 6.87389 5.81875 6.89263 5.81871 6.90369C5.81869 6.91474 5.80755 6.96017 5.79396 7.00464C5.78038 7.04911 5.76489 7.11767 5.75955 7.157C5.75421 7.19633 5.74285 7.25122 5.73431 7.27898C5.72468 7.31027 5.7171 7.36784 5.71439 7.43041C5.71198 7.48593 5.70609 7.5516 5.70131 7.57635C5.69652 7.60109 5.6888 7.71655 5.68415 7.83293C5.67951 7.94931 5.67163 8.08996 5.66663 8.14549C5.66164 8.20101 5.65641 8.3884 5.65501 8.56191C5.65309 8.79874 5.64879 8.90675 5.63777 8.99516C5.62565 9.09222 5.6242 9.14328 5.62946 9.2854C5.63802 9.516 5.63726 9.52943 5.61284 9.58147C5.5884 9.63353 5.53771 9.72743 5.52609 9.74213C5.51677 9.75393 5.47926 9.86942 5.46678 9.92476C5.46208 9.94558 5.45559 9.9883 5.45236 10.0197C5.44668 10.0749 5.44533 10.0775 5.41174 10.0999C5.36546 10.1306 5.34949 10.1378 5.25081 10.172C5.15687 10.2046 5.06241 10.242 4.9181 10.3036C4.86467 10.3265 4.80788 10.3475 4.79191 10.3505C4.77594 10.3534 4.7553 10.3604 4.74605 10.3658C4.7368 10.3713 4.7103 10.3828 4.68716 10.3914C4.66403 10.4 4.63721 10.4121 4.62757 10.4183C4.61794 10.4245 4.57441 10.4426 4.53083 10.4584C4.48726 10.4742 4.40655 10.5045 4.35147 10.5257C4.29639 10.5468 4.24816 10.5641 4.24426 10.5641C4.24037 10.5641 4.20151 10.5809 4.1579 10.6014C4.11429 10.6219 4.05265 10.6465 4.02093 10.6559C3.98921 10.6653 3.95577 10.6787 3.94664 10.6856C3.9375 10.6925 3.92563 10.6983 3.92026 10.6985C3.91489 10.6986 3.8822 10.712 3.84761 10.7282C3.81304 10.7444 3.78188 10.7576 3.77837 10.7576C3.76739 10.7576 3.59719 10.8257 3.46312 10.8838C3.38946 10.9156 3.30836 10.9468 3.25539 10.9636C3.23135 10.9712 3.20296 10.9842 3.19229 10.9925C3.18162 11.0008 3.10853 11.0334 3.02987 11.0649C2.95121 11.0964 2.849 11.139 2.80273 11.1594C2.75646 11.1799 2.69399 11.2055 2.66392 11.2162C2.58469 11.2444 2.55305 11.2588 2.52932 11.2771C2.51775 11.2861 2.47989 11.3032 2.44519 11.3151C2.38391 11.3362 2.3274 11.3598 2.23751 11.4018C2.2135 11.413 2.19134 11.4222 2.18825 11.4222C2.18515 11.4222 2.14422 11.4406 2.09728 11.4632C2.05034 11.4857 1.98472 11.5164 1.95146 11.5315C1.9182 11.5465 1.889 11.564 1.88658 11.5703C1.88397 11.5771 1.87641 11.5796 1.86802 11.5763C1.85918 11.5729 1.84959 11.5768 1.84246 11.5865C1.8341 11.5979 1.83103 11.5989 1.83094 11.59C1.83085 11.5818 1.8288 11.5809 1.82463 11.5874C1.82123 11.5926 1.78629 11.6127 1.74699 11.6321C1.70769 11.6514 1.66953 11.6727 1.6622 11.6794C1.65487 11.686 1.6449 11.6914 1.64005 11.6914C1.63519 11.6914 1.62651 11.6971 1.62075 11.704C1.61499 11.711 1.60309 11.7167 1.59432 11.7167C1.58553 11.7167 1.56423 11.7255 1.54697 11.7364C1.52972 11.7472 1.50105 11.763 1.48327 11.7713C1.46549 11.7797 1.44901 11.7917 1.44662 11.7979C1.44424 11.8041 1.43689 11.8092 1.4303 11.8092C1.42371 11.8092 1.41631 11.8145 1.41384 11.8209C1.41138 11.8273 1.3987 11.8347 1.38567 11.8373C1.37264 11.8399 1.35673 11.8473 1.35031 11.8537C1.34388 11.8601 1.33471 11.8669 1.32992 11.8688C1.31258 11.8757 1.23942 11.9238 1.17214 11.9726C0.968903 12.1199 0.90257 12.173 0.829884 12.2461C0.750763 12.3257 0.67012 12.4164 0.67012 12.4258C0.67012 12.4284 0.658805 12.4489 0.644983 12.4711C0.631161 12.4934 0.608514 12.5438 0.594675 12.5832C0.573955 12.642 0.569471 12.6681 0.569361 12.7304C0.569126 12.8552 0.592404 13.0165 0.62433 13.1113C0.631009 13.1312 0.636469 13.159 0.636469 13.1733C0.636469 13.1875 0.648331 13.2214 0.662826 13.2486C0.698899 13.3163 0.864048 13.4845 0.958573 13.5499C0.999231 13.5781 1.03484 13.6011 1.0377 13.6011C1.04055 13.6011 1.05491 13.6103 1.06959 13.6214C1.09668 13.6421 1.40933 13.8042 1.43999 13.8135C1.44918 13.8162 1.49835 13.8361 1.54924 13.8577C1.66499 13.9067 1.78065 13.9515 1.83459 13.9683C1.85736 13.9754 1.90004 13.9922 1.92944 14.0056C1.95885 14.0191 1.98755 14.0302 1.99322 14.0302C1.99889 14.0302 2.01412 14.0358 2.02706 14.0425C2.03999 14.0493 2.08921 14.0666 2.13642 14.081C2.18363 14.0954 2.23172 14.1106 2.24329 14.1146C2.25485 14.1187 2.27946 14.1245 2.29797 14.1275C2.31648 14.1305 2.34034 14.1385 2.35101 14.1451C2.36917 14.1566 2.40565 14.1677 2.55035 14.2063C2.58274 14.2149 2.63006 14.2282 2.65551 14.2357C2.68095 14.2433 2.7226 14.2547 2.74804 14.2612C2.77349 14.2677 2.82649 14.2825 2.86582 14.2942C3.01784 14.3394 3.05651 14.3503 3.09717 14.359C3.27364 14.3968 3.45807 14.4408 3.48832 14.4524C3.49991 14.4568 3.54725 14.4677 3.59352 14.4766C3.63979 14.4855 3.70225 14.4985 3.73233 14.5055C3.7624 14.5125 3.80972 14.5221 3.83748 14.5268C3.86524 14.5315 3.90569 14.5428 3.92737 14.5519C3.94905 14.5611 3.97934 14.5687 3.99467 14.5688C4.01001 14.569 4.04717 14.5748 4.07724 14.5817C4.10732 14.5885 4.1864 14.6056 4.25297 14.6194C4.31954 14.6333 4.37646 14.6462 4.37944 14.6481C4.38243 14.6499 4.45289 14.6634 4.53602 14.678C4.81935 14.7278 4.90586 14.7438 4.98581 14.7607C5.02977 14.7701 5.09034 14.78 5.12041 14.7828C5.17552 14.788 5.20151 14.7926 5.31035 14.8166C5.34309 14.8238 5.40012 14.8332 5.43706 14.8374C5.47402 14.8416 5.52863 14.8507 5.55841 14.8576C5.58819 14.8644 5.64095 14.8727 5.67565 14.8759C5.71035 14.8791 5.76454 14.8869 5.79607 14.8934C5.82761 14.8998 5.86566 14.9051 5.88062 14.9051C5.89559 14.9051 5.91161 14.9088 5.91623 14.9134C5.92085 14.9181 5.9665 14.9274 6.01767 14.9341C6.06885 14.9409 6.11977 14.9501 6.13084 14.9546C6.1518 14.9631 6.28411 14.9824 6.42858 14.998C6.47485 15.003 6.55813 15.0141 6.61366 15.0226C6.66918 15.0311 6.74187 15.0405 6.77519 15.0435C6.8085 15.0465 6.84825 15.0527 6.86352 15.0573C6.89389 15.0663 7.02492 15.0831 7.21637 15.1025C7.28412 15.1093 7.35605 15.119 7.37621 15.124C7.39636 15.1289 7.47722 15.1384 7.55588 15.145C7.63453 15.1516 7.7235 15.1607 7.75357 15.1651C7.78365 15.1696 7.85179 15.1773 7.905 15.1822C8.01397 15.1923 8.10033 15.2033 8.21399 15.2214C8.25669 15.2283 8.3608 15.2374 8.44534 15.2416C8.52988 15.2459 8.65204 15.257 8.71682 15.2664C8.7816 15.2758 8.94066 15.2891 9.07029 15.296C9.19991 15.3029 9.3343 15.3121 9.36894 15.3165C9.47798 15.3303 9.66139 15.3421 9.83639 15.3464C9.92929 15.3488 10.0656 15.3562 10.1392 15.363C10.2129 15.3697 10.3318 15.3774 10.4036 15.38C10.4753 15.3826 10.5586 15.3867 10.5886 15.3891C10.6878 15.397 11.9489 15.4002 12.1138 15.3929C12.2626 15.3863 12.47 15.371 12.6792 15.351C12.7254 15.3466 12.8333 15.3389 12.9189 15.3339C13.0045 15.3289 13.0889 15.3211 13.1065 15.3164C13.124 15.3118 13.2187 15.3026 13.3168 15.296C13.5585 15.2796 13.796 15.2504 13.9958 15.2124C14.0536 15.2014 14.1331 15.1879 14.1724 15.1824C14.2118 15.1769 14.2704 15.1668 14.3028 15.1601C14.3352 15.1534 14.4015 15.1406 14.45 15.1317C14.6695 15.0916 14.7301 15.0792 14.9422 15.0313C14.9838 15.0219 15.0422 15.0103 15.072 15.0057C15.1257 14.9973 15.1737 14.9862 15.2703 14.96C15.298 14.9524 15.3446 14.9408 15.3738 14.9341C15.403 14.9274 15.4333 14.9187 15.4411 14.9148C15.4588 14.906 15.5645 14.878 15.6699 14.8543C15.7138 14.8444 15.7668 14.8295 15.7877 14.8211C15.8085 14.8128 15.8388 14.8034 15.855 14.8003C15.8927 14.7931 15.9485 14.7773 16.0947 14.7324C16.1595 14.7125 16.2521 14.6844 16.3006 14.67C16.349 14.6557 16.3924 14.6402 16.3969 14.6357C16.4014 14.6311 16.4187 14.6274 16.4352 14.6274C16.4518 14.6274 16.473 14.622 16.4824 14.6155C16.4918 14.6089 16.5315 14.5932 16.5705 14.5807C16.6096 14.5682 16.6453 14.5551 16.65 14.5517C16.6588 14.5451 16.8481 14.4731 16.8771 14.4653C16.9481 14.4463 17.0704 14.3937 17.2742 14.2944C17.3446 14.2601 17.4039 14.232 17.406 14.232C17.4122 14.232 17.534 14.1755 17.6511 14.1183C17.7112 14.0889 17.7689 14.0625 17.7792 14.0596C17.7895 14.0567 17.7971 14.0499 17.796 14.0445C17.7949 14.0392 17.8032 14.0334 17.8143 14.0317C17.8255 14.03 17.8709 14.0095 17.9153 13.9862C18 13.9417 18.191 13.8426 18.3104 13.7811C18.3492 13.7611 18.387 13.7396 18.3946 13.7332C18.4021 13.7269 18.429 13.7111 18.4545 13.6982C18.4799 13.6852 18.5197 13.6624 18.5428 13.6474C18.5659 13.6324 18.6038 13.6095 18.6269 13.5965C18.7237 13.542 18.8131 13.488 18.8288 13.4746C18.8437 13.4618 18.9544 13.3931 19.0334 13.3476C19.0488 13.3387 19.0715 13.3245 19.0839 13.3159C19.0963 13.3073 19.1405 13.2803 19.1822 13.2558C19.2238 13.2313 19.2628 13.2044 19.2689 13.1959C19.2749 13.1874 19.2856 13.1805 19.2927 13.1805C19.2997 13.1805 19.3217 13.1672 19.3415 13.151C19.3612 13.1348 19.3809 13.1216 19.3852 13.1216C19.3895 13.1216 19.3984 13.114 19.4051 13.1047C19.4118 13.0955 19.423 13.0878 19.4301 13.0877C19.4372 13.0876 19.4873 13.0545 19.5414 13.0141C19.5956 12.9737 19.6667 12.9218 19.6993 12.8986C19.732 12.8755 19.7899 12.832 19.828 12.8019C19.9336 12.7186 19.9573 12.7017 19.9808 12.6927C19.9927 12.6882 20.0024 12.6803 20.0024 12.6752C20.0024 12.67 20.0988 12.5698 20.2167 12.4525C20.4421 12.2284 20.4976 12.1839 20.6044 12.1421C20.7226 12.0959 20.7486 12.0871 20.831 12.0654C20.8773 12.0532 20.9322 12.0366 20.953 12.0284C20.9738 12.0202 21.042 11.9975 21.1045 11.9781C21.1669 11.9586 21.237 11.9334 21.2601 11.9221C21.2832 11.9107 21.314 11.9015 21.3286 11.9016C21.3431 11.9017 21.3569 11.8969 21.3592 11.8909C21.3615 11.885 21.3969 11.8692 21.4379 11.856C21.4789 11.8427 21.5314 11.8236 21.5545 11.8134C21.5777 11.8032 21.6288 11.7823 21.6681 11.767C21.7074 11.7516 21.7497 11.7321 21.7619 11.7237C21.7742 11.7152 21.7865 11.7082 21.7892 11.7082C21.7919 11.7082 21.8304 11.6912 21.8747 11.6704C21.9189 11.6496 21.9573 11.6325 21.9599 11.6325C21.9626 11.6325 21.9832 11.6193 22.0057 11.6031C22.0283 11.5869 22.0492 11.5736 22.0523 11.5736C22.0553 11.5736 22.0865 11.5572 22.1216 11.537C22.1567 11.5169 22.2243 11.4788 22.2718 11.4524C22.3458 11.4112 22.4523 11.3372 22.6313 11.2026C22.7272 11.1305 22.8259 11.0121 22.8832 10.9006C22.901 10.8659 22.9184 10.8337 22.9219 10.8291C22.9473 10.7953 22.9681 10.7425 22.9816 10.6777C22.9903 10.6361 23.0032 10.5849 23.0103 10.5641C23.0611 10.4154 23.0591 10.0475 23.0061 9.7481C22.9975 9.69951 22.9879 9.63326 22.9849 9.60088C22.9818 9.56849 22.9735 9.50224 22.9665 9.45365C22.9432 9.29301 22.9398 9.25715 22.9344 9.12135C22.9288 8.98131 22.9244 8.93063 22.8973 8.69231C22.8883 8.61365 22.8784 8.52313 22.8753 8.49115C22.8721 8.45916 22.8639 8.41184 22.8571 8.38599C22.8503 8.36014 22.8393 8.29544 22.8327 8.24223C22.8261 8.18902 22.815 8.12088 22.8081 8.0908C22.7574 7.87011 22.6911 7.53757 22.6813 7.45565C22.678 7.42789 22.6742 7.39949 22.6729 7.39255C22.6716 7.38561 22.6702 7.37309 22.6699 7.36472C22.6695 7.35635 22.6658 7.35158 22.6617 7.35412C22.6576 7.35666 22.6522 7.34836 22.6497 7.33568C22.6471 7.32301 22.6368 7.27099 22.6268 7.22009C22.6168 7.1692 22.5991 7.0897 22.5873 7.04343C22.5756 6.99716 22.566 6.9488 22.5659 6.93597C22.5659 6.92313 22.5637 6.91479 22.561 6.91745C22.5584 6.9201 22.5492 6.89842 22.5406 6.86928C22.532 6.84014 22.5192 6.79736 22.5121 6.77422C22.4772 6.66004 22.4565 6.57991 22.4371 6.48399C22.4253 6.42615 22.406 6.33908 22.394 6.2905C22.3741 6.20957 22.372 6.18383 22.369 5.98344C22.3671 5.86313 22.3633 5.75524 22.3604 5.74367C22.3575 5.73211 22.3558 5.71969 22.3566 5.71608C22.3574 5.71248 22.3489 5.66894 22.3377 5.61934C22.3265 5.56973 22.3147 5.50915 22.3116 5.48471C22.3084 5.46026 22.2986 5.42056 22.2898 5.39649C22.281 5.37242 22.2738 5.33942 22.2739 5.32316C22.2739 5.3069 22.2609 5.25574 22.2449 5.20947C22.2006 5.08149 22.1666 4.96178 22.1612 4.91503C22.1585 4.89189 22.1526 4.84836 22.1479 4.81828C22.1433 4.78821 22.1394 4.73332 22.1393 4.6963C22.1389 4.57332 22.1134 4.47188 22.0378 4.29249C21.9843 4.16544 21.8511 3.90897 21.8062 3.84662C21.7828 3.81423 21.7528 3.7688 21.7395 3.74567C21.718 3.7083 21.6798 3.65206 21.6682 3.64051C21.6658 3.6382 21.6492 3.61738 21.6311 3.59424C21.6131 3.57111 21.5923 3.54644 21.5849 3.53943C21.5774 3.53241 21.5527 3.50402 21.5298 3.47633C21.4898 3.42788 21.3068 3.2368 21.1844 3.11575C21.1216 3.0537 20.9697 2.92361 20.8781 2.8535C20.7994 2.7932 20.7092 2.72238 20.6031 2.6375C20.5526 2.59712 20.4621 2.5277 20.402 2.48324C20.3418 2.43877 20.2851 2.3961 20.2758 2.3884C20.2324 2.35233 20.0118 2.1993 19.9226 2.14345C19.8903 2.12321 19.8595 2.10228 19.8541 2.09695C19.8453 2.08816 19.732 2.01899 19.5397 1.90512C19.5004 1.88183 19.4606 1.85625 19.4514 1.84827C19.4421 1.8403 19.4055 1.81828 19.3701 1.79934C19.3346 1.78041 19.2892 1.75383 19.2691 1.7403C19.2491 1.72676 19.1986 1.69775 19.1569 1.67583C19.1153 1.65391 19.0755 1.6317 19.0686 1.62647C19.0108 1.583 18.8168 1.50473 18.4965 1.39571C18.4156 1.36815 18.2984 1.32632 18.2361 1.30277C18.0423 1.22945 17.8633 1.18382 17.6553 1.15476C17.6021 1.14732 17.5258 1.13374 17.4859 1.12459C17.3882 1.10222 17.2596 1.0943 17.0327 1.09669C16.8974 1.09812 16.8231 1.09521 16.7719 1.08646C16.7326 1.07973 16.6342 1.06487 16.5532 1.05343C16.4722 1.04199 16.3927 1.02856 16.3765 1.0236C16.3455 1.01409 16.0223 0.987843 15.7666 0.974064C15.6833 0.96958 15.6061 0.963985 15.5951 0.961646C15.584 0.959299 15.4875 0.956666 15.3806 0.955791C15.1602 0.953982 14.9282 0.943954 14.7613 0.929013L14.6477 0.918843L14.6506 0.8507C14.6535 0.782238 14.6437 0.748386 14.608 0.703723C14.5984 0.691777 14.5029 0.630962 14.4515 0.604109C14.4281 0.591826 14.3462 0.569894 14.3239 0.569894C14.3151 0.569894 14.3043 0.563593 14.3 0.555887C14.2931 0.54347 14.2671 0.541619 14.0704 0.539558C13.8895 0.537657 13.8423 0.539558 13.8149 0.549847ZM13.8765 0.551967C13.8838 0.556602 13.874 0.560901 13.8478 0.564485C13.7999 0.571055 13.7896 0.565562 13.8287 0.554305C13.8655 0.543722 13.8636 0.543807 13.8765 0.551967ZM13.9306 0.550225C13.9248 0.552564 13.9153 0.552564 13.9095 0.550225C13.9038 0.547895 13.9085 0.545986 13.92 0.545986C13.9316 0.545986 13.9363 0.547895 13.9306 0.550225ZM15.1588 0.962445C15.153 0.964784 15.1436 0.964784 15.1378 0.962445C15.132 0.960115 15.1367 0.958206 15.1483 0.958206C15.1599 0.958206 15.1646 0.960115 15.1588 0.962445ZM12.7234 0.987894C12.7154 0.989997 12.7003 0.990072 12.6898 0.988062C12.6793 0.986051 12.6859 0.984327 12.7044 0.984234C12.7229 0.984142 12.7315 0.985791 12.7234 0.987894ZM12.2607 1.00506C12.2433 1.00688 12.2149 1.00688 12.1976 1.00506C12.1802 1.00326 12.1944 1.00177 12.2291 1.00177C12.2638 1.00177 12.278 1.00326 12.2607 1.00506ZM12.353 1.00402C12.3502 1.00681 12.343 1.00712 12.3369 1.00469C12.3302 1.002 12.3322 1.00001 12.342 0.999604C12.3508 0.999242 12.3558 1.00123 12.353 1.00402ZM11.9467 1.02322C11.9526 1.03278 11.922 1.04099 11.8842 1.04L11.8547 1.03924L11.8884 1.02815C11.9296 1.01455 11.9408 1.01361 11.9467 1.02322ZM16.3345 1.02459C16.3487 1.02941 16.3418 1.03016 16.3134 1.02688C16.2903 1.02421 16.2698 1.02061 16.2679 1.01889C16.2613 1.01298 16.3135 1.01745 16.3345 1.02459ZM11.0525 1.12966C11.0196 1.14394 11.0093 1.14501 11.0093 1.13413C11.0093 1.12634 11.0319 1.11975 11.064 1.11819C11.0746 1.11768 11.0704 1.12189 11.0525 1.12966ZM18.8981 1.55084C18.8953 1.55364 18.888 1.55394 18.8819 1.55151C18.8752 1.54882 18.8772 1.54683 18.887 1.54643C18.8959 1.54606 18.9008 1.54805 18.8981 1.55084ZM18.9805 1.59461C18.9779 1.59721 18.9711 1.59462 18.9654 1.58887C18.9571 1.58056 18.9581 1.5796 18.9701 1.58416C18.9784 1.58732 18.9831 1.59202 18.9805 1.59461ZM19.4219 1.8402C19.4289 1.84469 19.4308 1.84836 19.4261 1.84836C19.4215 1.84836 19.412 1.84469 19.4051 1.8402C19.3982 1.83572 19.3963 1.83205 19.4009 1.83205C19.4055 1.83205 19.415 1.83572 19.4219 1.8402ZM6.04314 4.61796C6.04045 4.62467 6.03846 4.62267 6.03806 4.61287C6.03769 4.604 6.03968 4.59904 6.04247 4.60183C6.04527 4.60463 6.04557 4.61189 6.04314 4.61796ZM6.04296 4.95499C6.04063 4.96078 6.03872 4.95604 6.03872 4.94447C6.03872 4.93291 6.04063 4.92818 6.04296 4.93396C6.0453 4.93974 6.0453 4.94921 6.04296 4.95499ZM6.05155 5.69478C6.04887 5.70149 6.04687 5.69949 6.04647 5.68969C6.04611 5.68082 6.04809 5.67586 6.05089 5.67865C6.05368 5.68145 6.05398 5.68871 6.05155 5.69478ZM22.3805 6.28367C22.3778 6.29037 22.3758 6.28838 22.3754 6.27858C22.3751 6.26971 22.377 6.26475 22.3798 6.26754C22.3826 6.27033 22.3829 6.27759 22.3805 6.28367ZM22.389 6.33871C22.3869 6.3469 22.385 6.34223 22.3848 6.32835C22.3846 6.31447 22.3864 6.30778 22.3887 6.31347C22.391 6.31917 22.3911 6.33052 22.389 6.33871ZM8.81681 6.63043C8.94192 6.6585 8.98182 6.69596 8.98182 6.78534C8.98182 6.83891 8.96911 6.8777 8.86143 7.15279C8.75517 7.42427 8.67053 7.67503 8.60015 7.92676C8.5715 8.02926 8.51912 8.26134 8.51915 8.28566C8.51916 8.29757 8.54593 8.25593 8.58706 8.17999C8.83471 7.72283 9.12554 7.36898 9.46792 7.10829C9.69211 6.93759 9.94707 6.82016 10.1759 6.78219C10.2929 6.76279 10.4424 6.76908 10.5557 6.79814C10.7821 6.85621 10.8747 6.97465 10.8747 7.20617C10.8747 7.3494 10.8471 7.4602 10.7067 7.88049C10.5744 8.27673 10.5189 8.45289 10.5246 8.45858C10.5265 8.46048 10.5537 8.41921 10.5851 8.36686C10.7016 8.17263 10.843 7.96928 10.9789 7.80057C11.0707 7.68662 11.2636 7.4903 11.3696 7.40287C11.6154 7.2002 11.9322 7.03745 12.187 6.98299C12.295 6.95993 12.5282 6.96238 12.6203 6.98756C12.7197 7.01474 12.7872 7.04953 12.8422 7.10203C12.8998 7.15699 12.9306 7.20984 12.948 7.28392C12.9878 7.45273 12.945 7.65807 12.7422 8.27168C12.5231 8.93458 12.4634 9.15354 12.4623 9.29802C12.461 9.47608 12.5353 9.55461 12.705 9.55461C12.8883 9.55461 13.1052 9.42732 13.5247 9.07349C13.6087 9.00265 13.6951 8.92995 13.7167 8.91194C13.7667 8.87025 13.8314 8.84026 13.885 8.83392C13.9534 8.82583 13.9661 8.8327 13.9963 8.89402C14.0307 8.96397 14.0379 9.05807 14.0176 9.17442C13.9916 9.32389 13.9398 9.42603 13.8427 9.51952C13.6668 9.68875 13.4758 9.82236 13.2521 9.93272C12.953 10.0802 12.7498 10.1295 12.4436 10.1288C12.0308 10.1278 11.7602 10.0139 11.6192 9.7818C11.5327 9.63931 11.4968 9.42941 11.5228 9.21788C11.5349 9.11931 11.5977 8.86545 11.648 8.71138C11.7736 8.3267 11.8487 8.04826 11.8562 7.93925C11.861 7.87017 11.8604 7.86664 11.8383 7.8404C11.8176 7.81586 11.8109 7.81319 11.7696 7.81319C11.6843 7.81319 11.5897 7.87965 11.4089 8.06653C11.1509 8.33316 11.0187 8.4986 10.8855 8.72175C10.7728 8.91047 10.6402 9.1838 10.551 9.41159C10.4108 9.76928 10.283 9.90069 10.0623 9.91402C9.85237 9.92671 9.72264 9.8527 9.63409 9.6697C9.49618 9.38463 9.5036 9.14236 9.67206 8.43051C9.77745 7.98512 9.81471 7.79996 9.81464 7.72166C9.8146 7.66691 9.79086 7.63072 9.74996 7.62304C9.66431 7.60698 9.51514 7.67416 9.39726 7.7819C9.34546 7.82925 9.20156 7.99509 9.10368 8.12025C8.92769 8.3453 8.75837 8.65217 8.59151 9.04852C8.52419 9.2084 8.4965 9.2951 8.4684 9.43392C8.44003 9.5741 8.41853 9.6259 8.37743 9.65313C8.26663 9.72653 8.03345 9.75056 7.89599 9.70275C7.74223 9.64928 7.64895 9.53409 7.59886 9.3358C7.53818 9.09561 7.54632 8.64055 7.61992 8.15811C7.68649 7.72177 7.80186 7.3365 7.97638 6.96772C8.07597 6.75726 8.19366 6.66221 8.40438 6.62205C8.48304 6.60706 8.73551 6.61219 8.81681 6.63043ZM5.81021 7.00315C5.80105 7.01745 5.8008 7.01743 5.8054 7.00278C5.80807 6.99431 5.81055 6.98295 5.81091 6.97754C5.81139 6.97045 5.81273 6.97055 5.81572 6.97791C5.81799 6.98352 5.81552 6.99488 5.81021 7.00315ZM5.74028 7.31001C5.7376 7.31671 5.7356 7.31472 5.7352 7.30492C5.73484 7.29605 5.73682 7.29109 5.73962 7.29388C5.74241 7.29668 5.74271 7.30394 5.74028 7.31001ZM22.6626 7.39255C22.6646 7.40644 22.6632 7.41779 22.6593 7.41779C22.6555 7.41779 22.6524 7.40644 22.6524 7.39255C22.6524 7.37867 22.6538 7.36732 22.6556 7.36732C22.6574 7.36732 22.6605 7.37867 22.6626 7.39255ZM5.70668 7.65124C5.70457 7.65934 5.70284 7.65272 5.70284 7.63652C5.70284 7.62033 5.70457 7.6137 5.70668 7.6218C5.7088 7.6299 5.7088 7.64314 5.70668 7.65124ZM5.68139 8.11762C5.67871 8.12433 5.67672 8.12233 5.67631 8.11253C5.67595 8.10367 5.67794 8.0987 5.68073 8.1015C5.68352 8.10429 5.68382 8.11155 5.68139 8.11762ZM22.9021 8.82429C22.8994 8.83099 22.8974 8.829 22.897 8.8192C22.8966 8.81033 22.8986 8.80537 22.9014 8.80816C22.9042 8.81095 22.9045 8.81821 22.9021 8.82429ZM22.919 8.98869C22.9169 8.99688 22.915 8.99222 22.9148 8.97834C22.9146 8.96446 22.9164 8.95776 22.9187 8.96346C22.921 8.96915 22.9211 8.98051 22.919 8.98869ZM5.63953 9.11915C5.63752 9.12962 5.6358 9.12304 5.6357 9.10453C5.63561 9.08602 5.63726 9.07746 5.63936 9.0855C5.64147 9.09354 5.64154 9.10868 5.63953 9.11915ZM5.63941 9.34203C5.63728 9.35021 5.63539 9.34555 5.63522 9.33167C5.63506 9.31779 5.6368 9.31109 5.6391 9.31679C5.64141 9.32248 5.64155 9.33384 5.63941 9.34203ZM21.6176 9.46273C21.769 9.53118 21.7978 9.71996 21.6736 9.82932C21.6269 9.87042 21.577 9.88625 21.5154 9.87952C21.3761 9.8643 21.3249 9.86396 21.2826 9.878C21.2247 9.89723 21.1701 9.94092 21.1297 10.0004C21.0908 10.0577 21.0553 10.0873 21.004 10.1055C20.8624 10.1554 20.7112 10.0457 20.7143 9.89532C20.7166 9.78676 20.7847 9.70638 20.8955 9.6814C20.9227 9.67525 20.948 9.6765 20.9951 9.68627C21.1497 9.71839 21.262 9.67488 21.3443 9.55089C21.3921 9.47887 21.45 9.44676 21.5335 9.44602C21.5628 9.44576 21.5937 9.4519 21.6176 9.46273ZM5.64774 9.52254C5.64506 9.52924 5.64307 9.52725 5.64266 9.51745C5.6423 9.50858 5.64429 9.50362 5.64708 9.50641C5.64987 9.5092 5.65017 9.51646 5.64774 9.52254ZM21.5209 10.1003C21.6059 10.1391 21.6541 10.2125 21.6545 10.3038C21.6547 10.35 21.6506 10.3664 21.629 10.4048C21.6149 10.4299 21.5874 10.4628 21.568 10.4777C21.5081 10.5238 21.4725 10.5281 21.3232 10.5073C21.2977 10.5037 21.2567 10.5038 21.232 10.5075C21.1469 10.5201 21.1057 10.5503 21.0006 10.677C20.9233 10.7702 20.7912 10.7831 20.6983 10.7065C20.5543 10.5878 20.6113 10.3617 20.7956 10.3205C20.8271 10.3135 20.8478 10.3143 20.8908 10.3243C21.0365 10.3581 21.1617 10.3167 21.2325 10.2114C21.2734 10.1505 21.2991 10.126 21.3442 10.1047C21.3968 10.0798 21.4718 10.078 21.5209 10.1003ZM21.4193 10.7358C21.4585 10.7521 21.5147 10.8048 21.5346 10.8438C21.571 10.9153 21.5602 11.0164 21.5094 11.0776C21.4785 11.1149 21.4121 11.1515 21.3632 11.1582C21.3104 11.1655 21.2426 11.1438 21.1977 11.1054C21.0802 11.0048 21.1011 10.819 21.2381 10.7475C21.2737 10.7289 21.2943 10.724 21.337 10.724C21.3667 10.724 21.4037 10.7293 21.4193 10.7358ZM2.14847 14.0689C2.14567 14.0717 2.13841 14.072 2.13235 14.0695C2.12563 14.0668 2.12763 14.0649 2.13743 14.0645C2.1463 14.0641 2.15126 14.0661 2.14847 14.0689ZM16.4691 14.6106C16.4621 14.6151 16.4489 14.6186 16.4396 14.6183L16.4228 14.6178L16.4396 14.6106C16.4489 14.6066 16.4621 14.6032 16.4691 14.6029C16.4803 14.6025 16.4803 14.6034 16.4691 14.6106ZM4.41147 14.6409C4.40868 14.6437 4.40142 14.644 4.39535 14.6416C4.38864 14.6389 4.39063 14.6369 4.40043 14.6365C4.4093 14.6362 4.41426 14.6381 4.41147 14.6409ZM4.95829 14.7419C4.9555 14.7447 4.94824 14.745 4.94217 14.7425C4.93546 14.7399 4.93745 14.7379 4.94725 14.7375C4.95612 14.7371 4.96109 14.7391 4.95829 14.7419ZM5.87545 14.9274C5.88124 14.9298 5.8907 14.9298 5.89648 14.9274C5.90227 14.9251 5.89753 14.9232 5.88596 14.9232C5.8744 14.9232 5.86967 14.9251 5.87545 14.9274ZM6.18882 14.9471C6.1985 14.9534 6.19557 14.9553 6.1762 14.9553C6.16232 14.9553 6.14528 14.9516 6.13834 14.9471C6.12866 14.9409 6.1316 14.939 6.15096 14.939C6.16484 14.939 6.18188 14.9426 6.18882 14.9471ZM6.2286 14.9606C6.22581 14.9634 6.21855 14.9637 6.21248 14.9613C6.20577 14.9586 6.20776 14.9566 6.21757 14.9562C6.22643 14.9558 6.2314 14.9578 6.2286 14.9606ZM6.42209 14.9858C6.4193 14.9886 6.41204 14.9889 6.40597 14.9865C6.39926 14.9838 6.40126 14.9818 6.41106 14.9814C6.41992 14.9811 6.42489 14.9831 6.42209 14.9858ZM7.09511 15.0784C7.09231 15.0812 7.08505 15.0815 7.07899 15.0791C7.07227 15.0764 7.07427 15.0744 7.08407 15.074C7.09294 15.0736 7.0979 15.0756 7.09511 15.0784ZM7.41479 15.1204C7.41199 15.1232 7.40473 15.1235 7.39867 15.1211C7.39195 15.1184 7.39395 15.1164 7.40375 15.116C7.41262 15.1157 7.41758 15.1177 7.41479 15.1204ZM7.74288 15.1541C7.74009 15.1569 7.73283 15.1572 7.72676 15.1548C7.72005 15.1521 7.72204 15.1501 7.73184 15.1497C7.74071 15.1493 7.74567 15.1513 7.74288 15.1541ZM8.25218 15.2134C8.24649 15.2157 8.23513 15.2159 8.22694 15.2137C8.21876 15.2116 8.22342 15.2097 8.2373 15.2095C8.25118 15.2094 8.25788 15.2111 8.25218 15.2134ZM8.39504 15.2303C8.38926 15.2326 8.37979 15.2326 8.37401 15.2303C8.36823 15.228 8.37295 15.2261 8.38452 15.2261C8.39609 15.2261 8.40083 15.228 8.39504 15.2303ZM8.72523 15.25L8.75047 15.2564L8.72523 15.2568C8.71135 15.257 8.68296 15.2541 8.66214 15.2504L8.62428 15.2437L8.66214 15.2436C8.68296 15.2436 8.71135 15.2464 8.72523 15.25ZM13.6614 15.2555C13.6556 15.2579 13.6461 15.2579 13.6403 15.2555C13.6345 15.2532 13.6393 15.2513 13.6508 15.2513C13.6624 15.2513 13.6671 15.2532 13.6614 15.2555ZM8.77764 15.2635C8.77484 15.2663 8.76758 15.2666 8.76152 15.2641C8.7548 15.2614 8.7568 15.2595 8.7666 15.259C8.77547 15.2587 8.78043 15.2607 8.77764 15.2635ZM8.94202 15.2807C8.93632 15.283 8.92497 15.2832 8.91678 15.281C8.9086 15.2789 8.91326 15.277 8.92714 15.2768C8.94102 15.2767 8.94771 15.2784 8.94202 15.2807ZM9.1017 15.2892C9.09592 15.2915 9.08646 15.2915 9.08067 15.2892C9.07489 15.2869 9.07962 15.2849 9.09118 15.2849C9.10275 15.2849 9.10749 15.2869 9.1017 15.2892ZM9.46344 15.3148C9.45304 15.3168 9.43599 15.3168 9.42559 15.3148C9.41518 15.3128 9.42369 15.3111 9.44452 15.3111C9.46534 15.3111 9.47385 15.3128 9.46344 15.3148ZM13.0683 15.3147C13.0602 15.3168 13.0469 15.3168 13.0388 15.3147C13.0307 15.3125 13.0373 15.3108 13.0535 15.3108C13.0697 15.3108 13.0764 15.3125 13.0683 15.3147ZM9.54757 15.3228C9.54179 15.3252 9.53233 15.3252 9.52654 15.3228C9.52076 15.3205 9.52549 15.3186 9.53705 15.3186C9.54862 15.3186 9.55336 15.3205 9.54757 15.3228ZM12.6222 15.3476C12.6194 15.3504 12.6122 15.3507 12.6061 15.3483C12.5994 15.3456 12.6014 15.3436 12.6112 15.3432C12.62 15.3428 12.625 15.3448 12.6222 15.3476ZM10.1787 15.3564C10.173 15.3587 10.1616 15.3589 10.1534 15.3568C10.1453 15.3546 10.1499 15.3527 10.1638 15.3526C10.1777 15.3524 10.1844 15.3541 10.1787 15.3564ZM10.2667 15.3644C10.2639 15.3672 10.2566 15.3675 10.2506 15.3651C10.2438 15.3624 10.2458 15.3604 10.2556 15.36C10.2645 15.3596 10.2695 15.3616 10.2667 15.3644ZM12.4203 15.3644C12.4175 15.3672 12.4103 15.3675 12.4042 15.3651C12.3975 15.3624 12.3995 15.3604 12.4093 15.36C12.4181 15.3596 12.4231 15.3616 12.4203 15.3644ZM10.4265 15.3728C10.4237 15.3756 10.4165 15.3759 10.4104 15.3735C10.4037 15.3708 10.4057 15.3688 10.4155 15.3684C10.4243 15.3681 10.4293 15.37 10.4265 15.3728ZM10.5025 15.3735C10.4945 15.3756 10.4793 15.3757 10.4689 15.3737C10.4584 15.3717 10.465 15.37 10.4835 15.3699C10.502 15.3698 10.5105 15.3714 10.5025 15.3735ZM12.3069 15.3733C12.3011 15.3757 12.2917 15.3757 12.2859 15.3733C12.2801 15.371 12.2848 15.3691 12.2964 15.3691C12.308 15.3691 12.3127 15.371 12.3069 15.3733ZM10.6622 15.3822C10.6495 15.3841 10.6287 15.3841 10.616 15.3822C10.6032 15.3803 10.6137 15.3787 10.6391 15.3787C10.6646 15.3787 10.675 15.3803 10.6622 15.3822ZM12.2145 15.3821C12.2042 15.3841 12.1852 15.3841 12.1724 15.3822C12.1596 15.3803 12.1681 15.3786 12.1912 15.3786C12.2144 15.3785 12.2248 15.3801 12.2145 15.3821ZM11.0871 15.3901C11.0813 15.3925 11.0718 15.3925 11.0661 15.3901C11.0603 15.3878 11.065 15.3859 11.0766 15.3859C11.0881 15.3859 11.0929 15.3878 11.0871 15.3901ZM11.8274 15.3907C11.8077 15.3925 11.7756 15.3925 11.7559 15.3907C11.7362 15.389 11.7523 15.3875 11.7916 15.3875C11.831 15.3875 11.8471 15.389 11.8274 15.3907ZM11.966 15.3897C11.9632 15.3924 11.956 15.3928 11.9499 15.3903C11.9432 15.3876 11.9452 15.3856 11.955 15.3852C11.9639 15.3849 11.9688 15.3869 11.966 15.3897Z" fill="black"/>
</svg>
